<svg width="28px" height="13px" viewBox="0 0 30 13" version="1.1" xmlns="http://www.w3.org/2000/svg" style="overflow: visible;"><g id="􀐤--Find-My" stroke="none" stroke-width="1" fill="none" fill-rule="nonzero"><path data-testid="show-charging-svg" class="fmip-charging-glyph" d="M0 12.1168C0 12.4977 0.292969 12.7809 0.703125 12.7809L6.2207 12.7809L3.31055 20.6911C2.92969 21.6969 3.97461 22.234 4.62891 21.4137L13.5059 10.32C13.6719 10.1149 13.7598 9.91958 13.7598 9.69497C13.7598 9.32388 13.4668 9.03091 13.0566 9.03091L7.53906 9.03091L10.4492 1.12075C10.8301 0.114895 9.78516-0.422214 9.13086 0.407864L0.253906 11.4918C0.0878906 11.7067 0 11.902 0 12.1168Z" fill-opacity="0.85" transform="matrix(0.7, 0, 0, 0.6, 36, 0)"></path><g><path class="fmip-charging-percent-glyph" d="M5.20508 13.2129L20.5566 13.2129C22.2266 13.2129 23.6328 13.0566 24.6289 12.0605C25.625 11.0645 25.7715 9.67773 25.7715 8.00781L25.7715 5.20508C25.7715 3.53516 25.625 2.14844 24.6289 1.15234C23.6328 0.15625 22.2266 0 20.5566 0L5.18555 0C3.54492 0 2.13867 0.15625 1.14258 1.15234C0.146484 2.14844 0 3.54492 0 5.17578L0 8.00781C0 9.67773 0.146484 11.0645 1.14258 12.0605C2.13867 13.0566 3.54492 13.2129 5.20508 13.2129ZM4.94141 11.6406C3.93555 11.6406 2.88086 11.5039 2.28516 10.918C1.69922 10.3223 1.57227 9.27734 1.57227 8.27148L1.57227 4.96094C1.57227 3.93555 1.69922 2.89062 2.28516 2.29492C2.88086 1.69922 3.94531 1.57227 4.9707 1.57227L20.8301 1.57227C21.8359 1.57227 22.8906 1.70898 23.4766 2.29492C24.0723 2.89062 24.1992 3.92578 24.1992 4.93164L24.1992 8.27148C24.1992 9.27734 24.0723 10.3223 23.4766 10.918C22.8906 11.5039 21.8359 11.6406 20.8301 11.6406ZM27.0996 9.13086C27.8711 9.08203 28.9062 8.0957 28.9062 6.60156C28.9062 5.11719 27.8711 4.13086 27.0996 4.08203Z"></path><rect id="Rectangle" x="2.27027027" y="2.36363636" width="5" height="8.27272727" rx="1.125" class="fmip-battery-container-rect"></rect></g></g></svg>