<?xml version="1.0" encoding="UTF-8" standalone="no"?>
<!-- Created with Inkscape (http://www.inkscape.org/) -->

<svg
   version="1.1"
   id="svg1"
   width="134.327"
   height="134.27699"
   viewBox="0 0 134.327 134.27699"
   xmlns="http://www.w3.org/2000/svg"
   xmlns:svg="http://www.w3.org/2000/svg">
  <defs
     id="defs1" />
  <g
     id="g1"
     transform="translate(2.6082912,2.123576)">
    <path
       id="rect9-5"
       style="display:inline;fill:#000000;fill-opacity:0.596386;stroke-width:0.426506;stroke-linecap:round"
       d="m 64.901006,0.93933982 c -35.630596,0 -64.31521958,28.76423418 -64.31521958,64.49371818 0,35.729482 28.68462358,64.493722 64.31521958,64.493722 h 0.503446 c 35.630608,0 64.315218,-28.76424 64.315218,-64.493722 0,-35.729484 -28.68462,-64.49371818 -64.315218,-64.49371818 z M 65.182228,14.966487 c 27.758474,0 50.106642,22.408215 50.106642,50.243731 v 0.179455 c 0,27.835515 -22.348168,50.243727 -50.106642,50.243727 -27.758475,0 -50.104671,-22.408212 -50.104671,-50.243727 v -0.179455 c 0,-27.835516 22.346196,-50.243731 50.104671,-50.243731 z" />
    <path
       d="M 93.471563,32.85884 C 87.395131,32.218398 76.438964,43.557177 76.438964,43.557177 L 64.757445,55.125186 53.101492,43.557177 c 0,0 -12.951357,-13.902523 -17.634375,-9.201556 -4.780999,4.799323 9.386514,18.0442 9.386514,18.0442 L 56.651179,64.259693 44.853631,76.235914 c 0,0 -15.244325,13.673129 -10.279344,18.801465 5.092743,5.260301 19.534096,-10.000233 19.534096,-10.000233 l 11.655954,-11.56801 11.681519,11.56801 c 0,0 12.630446,14.048975 17.366918,9.457921 4.873673,-4.724035 -9.091526,-18.241404 -9.091526,-18.241404 L 73.943367,64.297161 85.721248,52.34066 c 0,0 14.844022,-13.373651 10.009922,-18.407057 -0.622754,-0.648429 -1.391546,-0.983272 -2.259607,-1.074763 z"
       style="display:inline;fill:#000000;fill-opacity:0.596386;stroke-width:1.00829"
       id="path7-2" />
    <path
       id="rect9"
       style="display:inline;fill:#ff0000;stroke-width:0.423;stroke-linecap:round"
       d="M 63.625,0.25 C 28.238285,0.25 -0.25,28.738285 -0.25,64.125 -0.25,99.511715 28.238285,128 63.625,128 h 0.5 C 99.511715,128 128,99.511715 128,64.125 128,28.738285 99.511715,0.25 64.125,0.25 Z m 0.279297,13.892578 c 27.568476,0 49.763673,22.193243 49.763673,49.761719 v 0.177734 c 0,27.568476 -22.195197,49.761719 -49.763673,49.761719 -27.568476,0 -49.761719,-22.193243 -49.761719,-49.761719 v -0.177734 c 0,-27.568476 22.193243,-49.761719 49.761719,-49.761719 z" />
    <path
       d="M 92,31.863281 C 85.96516,31.228983 75.083984,42.458984 75.083984,42.458984 L 63.482422,53.916016 51.90625,42.458984 c 0,0 -12.862708,-13.769149 -17.513672,-9.113281 -4.748275,4.753281 9.322266,17.871094 9.322266,17.871094 L 55.431641,62.962891 43.714844,74.824219 c 0,0 -15.139982,13.541956 -10.208985,18.621093 5.057884,5.209837 19.400391,-9.904296 19.400391,-9.904296 L 64.482422,72.083984 76.083984,83.541016 c 0,0 12.543995,13.914197 17.248047,9.367187 4.840307,-4.678715 -9.029297,-18.066406 -9.029297,-18.066406 L 72.605469,63 84.302734,51.158203 c 0,0 14.742413,-13.245351 9.941407,-18.230469 C 93.625649,32.285525 92.86212,31.953895 92,31.863281 Z"
       style="display:inline;fill:#ff0000"
       id="path7" />
  </g>
</svg>
