<?xml version="1.0" encoding="UTF-8" standalone="no"?>
<!-- Created with Inkscape (http://www.inkscape.org/) -->

<svg
   version="1.1"
   id="svg1"
   width="1024"
   height="1024"
   viewBox="0 0 1024 1024"
   xml:space="preserve"
   xmlns="http://www.w3.org/2000/svg"
   xmlns:svg="http://www.w3.org/2000/svg"><defs
     id="defs1" /><g
     id="g7"
     transform="matrix(3.773231,0,0,3.773231,-1421.4497,-1414.7058)"><rect
       style="fill:#000000;stroke-width:89.824;stroke-linecap:round;stroke-linejoin:round;stroke-opacity:0.658228"
       id="rect1"
       width="185.42548"
       height="13.585632"
       x="419.68579"
       y="614.29077"
       rx="5.4690719"
       ry="5.8748446" /><rect
       style="fill:#000000;stroke-width:96.3535;stroke-linecap:round;stroke-linejoin:round;stroke-opacity:0.658228"
       id="rect2"
       width="15.054346"
       height="107.5835"
       x="420.05298"
       y="504.87137"
       rx="6.2286654"
       ry="5.9356189" /><rect
       style="fill:#000000;stroke-width:96.3535;stroke-linecap:round;stroke-linejoin:round;stroke-opacity:0.658228"
       id="rect2-1"
       width="15.054346"
       height="107.5835"
       x="589.93744"
       y="505.10974"
       rx="6.2286654"
       ry="5.9356189" /><path
       style="fill:#000000;fill-opacity:1;stroke:#000000;stroke-width:1;stroke-linecap:round;stroke-linejoin:round;stroke-dasharray:none;stroke-opacity:1"
       d="m 512.21496,394.71762 c 0,0 -117.13016,114.5599 -117.13016,114.5599 0.61939,2.6293 1.23879,5.2586 2.8299,6.97211 1.59111,1.7135 4.15393,2.51121 6.71676,3.30891 0,0 107.5835,-106.48196 107.5835,-106.48196 0,0 107.21632,106.48196 107.21632,106.48196 2.74619,-0.45132 5.49239,-0.90265 7.26709,-2.55495 1.77469,-1.65231 2.5779,-4.5056 3.3811,-7.35889 z"
       id="path8"
       transform="translate(0.36717915,-1.8358963)" /><path
       style="fill:#000000;fill-opacity:1;stroke:#000000;stroke-width:0.845596;stroke-linecap:round;stroke-linejoin:round;stroke-dasharray:none;stroke-opacity:1"
       id="path9"
       d="m 407.00354,512.39856 a 6.6405301,7.5125809 0 0 1 -6.63599,7.51258 6.6405301,7.5125809 0 0 1 -6.64507,-7.5023 6.6405301,7.5125809 0 0 1 6.6269,-7.52285 6.6405301,7.5125809 0 0 1 6.65413,7.49202 l -6.6405,0.0205 z" /><path
       style="fill:#000000;fill-opacity:1;stroke:#000000;stroke-width:0.891167;stroke-linecap:round;stroke-linejoin:round;stroke-dasharray:none;stroke-opacity:1"
       id="path9-6"
       d="m 631.37646,511.49026 a 7.3980007,7.4897957 0 0 1 -7.39295,7.4898 7.3980007,7.4897957 0 0 1 -7.40305,-7.47955 7.3980007,7.4897957 0 0 1 7.38281,-7.50003 7.3980007,7.4897957 0 0 1 7.41316,7.46929 l -7.39798,0.0205 z" /></g></svg>
