<?xml version="1.0" encoding="UTF-8" standalone="no"?>
<!-- Created with Inkscape (http://www.inkscape.org/) -->

<svg
   version="1.1"
   id="svg1"
   width="256"
   height="256"
   viewBox="0 0 256 256"
   xmlns="http://www.w3.org/2000/svg"
   xmlns:svg="http://www.w3.org/2000/svg">
  <defs
     id="defs1" />
  <g
     id="g1">
    <path
       d="m 75.175781,183.50391 c -0.178055,0.17108 0.401825,1.71187 1.28711,3.42382 2.74023,5.29902 13.494028,12.07343 26.537109,16.7168 8.55179,3.04446 9.29662,2.94369 3.94531,-0.53125 -4.97145,-3.22829 -9.347252,-7.19023 -12.693357,-11.49023 -1.610285,-2.06934 -4.556952,-3.6565 -10.496094,-5.6543 -4.541013,-1.5275 -8.402023,-2.63593 -8.580078,-2.46484 z"
       style="fill:#98c0db;fill-opacity:1"
       id="path13" />
    <path
       d="m 75.175781,183.50391 c 0.178055,-0.17109 4.039065,0.93734 8.580078,2.46484 5.939142,1.9978 8.885809,3.58496 10.496094,5.6543 3.346105,4.3 7.721907,8.26194 12.693357,11.49023 5.35131,3.47494 4.60648,3.57571 -3.94531,0.53125 -13.043081,-4.64337 -23.796879,-11.41778 -26.537109,-16.7168 -0.885285,-1.71195 -1.465165,-3.25274 -1.28711,-3.42382 z"
       style="fill:#98c0db;fill-opacity:1;stroke-width:0;stroke-dasharray:none"
       id="path12" />
    <path
       d="m 224.90625,143.85547 c -0.31722,-0.13068 -1.65147,1.79731 -3.22852,4.72265 -4.52039,8.38517 -8.83579,13.38377 -18.17773,21.05274 -11.90708,9.77475 -26.22713,24.09258 -30.75391,30.75 -5.22844,7.68936 -14.77211,17.01907 -21.15429,20.67969 -6.29604,3.6112 -5.05253,3.68333 5.60742,0.32226 25.60076,-8.0719 46.49196,-25.86787 58.56055,-49.88281 1.41845,-2.82255 4.20406,-8.38737 6.05273,-13.80469 2.10183,-6.15915 3.18666,-12.1282 3.16406,-13.65625 -0.002,-0.10586 -0.025,-0.16492 -0.0703,-0.18359 z"
       style="fill:#98c0db;fill-opacity:1"
       id="path11" />
    <path
       d="m 224.90625,143.85547 c 0.0453,0.0187 0.0687,0.0777 0.0703,0.18359 0.0226,1.52805 -1.06223,7.4971 -3.16406,13.65625 -1.84867,5.41732 -4.63428,10.98214 -6.05273,13.80469 -12.06859,24.01494 -32.95979,41.81091 -58.56055,49.88281 -10.65995,3.36107 -11.90346,3.28894 -5.60742,-0.32226 6.38218,-3.66062 15.92585,-12.99033 21.15429,-20.67969 4.52678,-6.65742 18.84683,-20.97525 30.75391,-30.75 9.34194,-7.66897 13.65734,-12.66757 18.17773,-21.05274 1.57705,-2.92534 2.9113,-4.85333 3.22852,-4.72265 z"
       style="fill:#98c0db;fill-opacity:1"
       id="path10" />
    <path
       d="m 82.861328,85.160156 c -1.367581,-0.06222 -12.344158,6.64745 -13.449219,8.333985 -6.45412,9.850239 -6.335182,65.844999 0.148438,69.917969 0.952075,0.59809 4.253657,2.54522 7.335937,4.32617 3.082281,1.78094 5.688234,3.243 5.792969,3.25 0.104735,0.007 -0.895092,-3.18273 -2.222656,-7.08594 C 77.517465,155.23095 75,138.92758 75,128.5 75,117.99841 77.524715,101.74997 80.527344,92.921875 81.887673,88.922339 83,85.476544 83,85.265625 c 0,-0.06783 -0.0475,-0.101321 -0.138672,-0.105469 z"
       style="fill:#98c0db;fill-opacity:1"
       id="path9" />
    <path
       d="M 82.861328,85.160156 C 82.9525,85.164304 83,85.197796 83,85.265625 c 0,0.210919 -1.112327,3.656714 -2.472656,7.65625 C 77.524715,101.74997 75,117.99841 75,128.5 c 0,10.42758 2.517465,26.73095 5.466797,35.40234 1.327564,3.90321 2.327391,7.09249 2.222656,7.08594 -0.104735,-0.007 -2.710688,-1.46906 -5.792969,-3.25 -3.08228,-1.78095 -6.383862,-3.72808 -7.335937,-4.32617 -6.48362,-4.07297 -6.602558,-60.06773 -0.148438,-69.917969 1.105061,-1.686535 12.081638,-8.396201 13.449219,-8.333985 z"
       style="fill:#98c0db;fill-opacity:1;stroke-width:0;stroke-dasharray:none"
       id="path8" />
    <path
       d="m 184.01953,76.042969 c -0.22622,-0.02872 -0.3817,-0.01478 -0.44336,0.04687 -0.24662,0.246622 0.76839,3.892895 2.25391,8.101562 1.9152,5.425989 3.56901,8.314276 5.68554,9.931641 4.22921,3.231768 10.12071,9.816088 12.16016,13.587888 2.57489,4.76206 2.69318,3.3227 0.30859,-3.75586 -4.38652,-13.02119 -11.31728,-24.193019 -16.56054,-26.693356 -1.40225,-0.668683 -2.72563,-1.132588 -3.4043,-1.21875 z"
       style="fill:#98c0db;fill-opacity:1"
       id="path7" />
    <path
       d="M 129.05273,64.537109 C 119.38071,64.448063 109.70475,65.023858 103,66.425781 98.325005,67.403295 92.699998,68.580249 90.5,69.041016 84.469628,70.304014 78.420811,72.636578 71.810547,76.248047 67.332732,78.694468 64.91375,80.90827 62.050781,85.181641 58.247805,90.858101 52.861465,102.8351 51.564453,108.5 c -0.614058,2.68201 -0.377463,2.52301 2.230469,-1.5 15.026611,-23.180106 54.495908,-36.149942 92.730468,-30.472656 5.65487,0.839668 13.48889,2.617464 17.41016,3.951172 l 7.13086,2.423828 -3.07422,-5.701172 c -1.69008,-3.135875 -3.66515,-6.486362 -4.38867,-7.445313 -2.32269,-3.078475 -18.43074,-5.070339 -34.55079,-5.21875 z"
       style="fill:#98c0db;fill-opacity:1"
       id="path6" />
    <path
       d="m 109.91406,51.304687 c -0.28372,0.01559 -0.76012,0.110044 -1.41406,0.259766 -11.442855,2.619904 -27.642452,11.833752 -30.4375,17.3125 l -1.880859,3.6875 7.996093,-2.681641 c 6.689282,-2.24441 8.811736,-3.528821 12.972657,-7.845703 2.736091,-2.838646 7.084169,-6.510444 9.662109,-8.160156 3.06511,-1.961471 3.95273,-2.619022 3.10156,-2.572266 z"
       style="fill:#98c0db;fill-opacity:1"
       id="path5" />
    <path
       d="m 109.91406,51.304687 c 0.85117,-0.04676 -0.0365,0.610795 -3.10156,2.572266 -2.57794,1.649712 -6.926018,5.32151 -9.662109,8.160156 -4.160921,4.316882 -6.283375,5.601293 -12.972657,7.845703 l -7.996093,2.681641 1.880859,-3.6875 c 2.795048,-5.478748 18.994645,-14.692596 30.4375,-17.3125 0.65394,-0.149722 1.13034,-0.24418 1.41406,-0.259766 z m 19.13867,13.232422 c 16.12005,0.148411 32.2281,2.140275 34.55079,5.21875 0.72352,0.958951 2.69859,4.309438 4.38867,7.445313 l 3.07422,5.701172 -7.13086,-2.423828 C 160.01428,79.144808 152.18026,77.367012 146.52539,76.527344 108.29083,70.850058 68.821533,83.819894 53.794922,107 c -2.607932,4.02301 -2.844527,4.18201 -2.230469,1.5 1.297012,-5.6649 6.683352,-17.641899 10.486328,-23.318359 2.862969,-4.273371 5.281951,-6.487173 9.759766,-8.933594 6.610264,-3.611469 12.659081,-5.944033 18.689453,-7.207031 2.199998,-0.460767 7.825005,-1.637721 12.5,-2.615235 6.70475,-1.401923 16.38071,-1.977718 26.05273,-1.888672 z m 54.9668,11.50586 c 0.67867,0.08616 2.00205,0.550067 3.4043,1.21875 5.24326,2.500337 12.17402,13.672166 16.56054,26.693361 2.38459,7.07856 2.2663,8.51792 -0.30859,3.75586 -2.03945,-3.77181 -7.93095,-10.356125 -12.16016,-13.587893 -2.11653,-1.617365 -3.77034,-4.505652 -5.68554,-9.931641 -1.48552,-4.208667 -2.50053,-7.85494 -2.25391,-8.101562 0.0617,-0.06166 0.21714,-0.0756 0.44336,-0.04687 z"
       style="fill:#98c0db;fill-opacity:1"
       id="path4" />
    <path
       d="m 141.60742,31.230469 c -1.45012,-0.05168 0.0839,0.73484 6.00781,3.677734 9.11775,4.529537 19.37694,13.853251 25.66211,23.322266 2.04212,3.076578 6.6939,8.445937 10.33594,11.93164 10.78614,10.323141 19.22618,24.556589 22.73633,38.337891 2.48428,9.75362 3.77306,24.45916 2.54297,29.03125 -1.85738,6.90362 -7.64104,16.01996 -13.75,21.67578 -4.97109,4.60236 -6.63613,6.94287 -7.67969,10.79297 -0.0745,0.275 -0.50108,1.4 -0.94727,2.5 -0.44619,1.1 -1.40305,3.47813 -2.12695,5.28516 l -1.3164,3.28515 7.20703,-3.78515 C 212.74775,165.48385 226,146.80973 226,126.94922 226,113.82169 221.74735,96.382736 215.52539,84 201.859,56.801618 172.97999,35.610408 144,31.513672 c -1.09487,-0.154776 -1.9092,-0.265976 -2.39258,-0.283203 z"
       style="fill:#3498db;fill-opacity:1"
       id="path3" />
    <path
       d="M 130.43164,30.400391 C 121.77462,30.069909 108.62355,31.730165 97.5,35.451172 68.44506,45.170522 45.238279,68.431283 35.400391,97.693359 c -3.023578,8.993411 -5.390985,22.315771 -5.396485,30.375001 -0.0174,25.45642 24.66162,49.52821 60.322266,58.83594 14.467418,3.77611 21.090498,4.55604 38.173828,4.49804 20.21231,-0.0686 32.88374,-2.06383 35.85547,-5.64648 2.95379,-3.56101 7.01877,-12.11312 5.48242,-11.5332 -9.66231,3.64721 -28.48229,6.76562 -40.83789,6.76562 -21.39067,0 -39.203007,-4.82353 -59,-15.97656 C 61.130588,160.01495 50.879913,146.71567 48.15625,136.67187 46.957952,132.25302 48.214316,118.06586 50.650391,108.5 57.675178,80.915416 80.915416,57.675178 108.5,50.650391 c 9.56586,-2.436075 23.75302,-3.692439 28.17187,-2.494141 9.63436,2.612629 23.62548,13.043764 27.65821,20.621094 0.79701,1.497539 3.04231,5.64766 4.99023,9.222656 9.91091,18.189411 13.8509,45.01894 10.1836,69.34961 -2.00237,13.28465 -4.5708,21.14517 -10.7793,32.99805 -6.94763,13.26396 -13.68235,20.53527 -23.53125,25.40039 -7.14527,3.52961 -8.08931,3.73712 -15.88672,3.51172 C 106.92686,208.61282 85.379503,199.47366 71,184.52734 67.975003,181.38311 62.165997,176.54065 58.091797,173.76758 48.617232,167.31878 39.184394,157.64648 35.1875,150.2793 c -4.099108,-7.55559 -4.154093,-4.41898 -0.138672,7.88086 6.737685,20.63856 19.16229,37.45599 36.951172,50.01562 11.923283,8.41829 23.490313,13.1757 40.5,16.6582 21.08778,4.31746 35.94875,0.36546 49.76562,-13.23242 14.01828,-13.79608 22.68365,-32.18188 27.85547,-59.10156 2.2093,-11.49952 1.68446,-39.79757 -0.96875,-52.23437 -5.30719,-24.877309 -16.81189,-45.165571 -31.22265,-57.324224 -6.28212,-5.191707 -12.99238,-8.684032 -20.58008,-11.548828 -1.64559,-0.549834 -4.0323,-0.882027 -6.91797,-0.992187 z"
       style="fill:#3498db;fill-opacity:1"
       id="path2" />
  </g>
</svg>
