<?xml version="1.0" encoding="UTF-8" standalone="no"?>
<!-- Created with Inkscape (http://www.inkscape.org/) -->

<svg
   version="1.1"
   id="svg1"
   width="816"
   height="1056"
   viewBox="0 0 816 1056"
   xmlns="http://www.w3.org/2000/svg"
   xmlns:svg="http://www.w3.org/2000/svg">
  <defs
     id="defs1" />
  <g
     id="g1">
    <g
       id="g28"
       style="display:inline;fill:#000000"
       transform="translate(19.76985,9.85774)">
      <path
         d="m 388.86719,480.81445 c -0.77572,0 -15.62405,28.73095 -15.67774,30.33594 -0.0189,0.59764 4.03053,3.99807 9,7.55664 8.03402,5.75298 8.86588,6.85951 7.51758,9.98047 -1.82508,4.2245 -15.76367,49.38215 -15.76367,51.07031 0,1.92171 0.53617,1.01497 14.79101,-25.05273 l 13.62891,-24.92383 -5.91016,-5.25781 c -3.25015,-2.89271 -8.32681,-7.38391 -11.28125,-9.98047 l -5.37109,-4.72266 4.86524,-14.50195 c 2.67535,-7.97697 4.56563,-14.50391 4.20117,-14.50391 z"
         style="fill:#000000;stroke-width:6.3241"
         id="path26" />
      <path
         style="fill:#000000"
         d="m 311.52,588.15437 c -13.96691,-1.38186 -25.87744,-6.40605 -33.49325,-14.12837 -6.19906,-6.28575 -9.65434,-13.94188 -10.62654,-23.546 l -0.17006,-1.68 h 8.5928 8.59281 l 0.55011,2.48 c 1.05129,4.7393 2.68885,7.79102 6.02526,11.22851 4.49,4.62602 11.13299,7.80028 19.33308,9.23804 3.91388,0.68624 15.04412,0.77488 18.63579,0.14842 15.08078,-2.63043 23.66889,-10.89418 23.66889,-22.77497 0,-7.15057 -2.98009,-12.61874 -9.02918,-16.56762 -5.04367,-3.29255 -10.4928,-5.07304 -25.67971,-8.3908 -15.37061,-3.35789 -20.32231,-4.89594 -27.37246,-8.50218 -5.74121,-2.9367 -10.03672,-6.36102 -13.16014,-10.49106 -8.4739,-11.2049 -8.92524,-28.29332 -1.06278,-40.23883 1.97429,-2.99957 7.27333,-8.28535 10.3955,-10.36951 7.34271,-4.90151 16.15334,-7.88625 25.91988,-8.78076 23.13949,-2.11934 77.6442,1.72895 77.6442,1.72895 l 6.51951,12.69681 -75.844,1.32485 c -17.04041,0.29766 -29.74965,6.37144 -32.20688,17.90016 -0.57691,2.70674 -0.41943,7.53218 0.32251,9.88181 1.92055,6.08213 6.82673,10.5283 15.15729,13.73611 3.83538,1.47687 7.16215,2.34798 18.80708,4.92457 15.74728,3.48429 28.49223,6.39101 37.77644,15.68729 4.32985,4.33548 6.68339,8.38954 8.10985,13.96951 2.81615,11.0161 1.10176,22.76479 -4.60082,31.5295 -6.53774,10.04831 -18.66144,16.63167 -34.40547,18.68269 -3.65646,0.47634 -14.82785,0.6663 -18.4,0.31288 z"
         id="path3" />
      <path
         style="display:inline;fill:#000000"
         d="m 499.11517,591.92183 c -0.0603,-2.3e-4 -0.32661,-27.9386 -0.86018,-60.38684 -0.53357,-32.44823 -1.00722,-59.02732 -1.05256,-59.06463 -0.0453,-0.0373 -10.48071,10.06559 -23.18972,22.4509 -12.709,12.38531 -30.9261,30.26882 -31.04066,30.14374 l -61.01353,-66.61869 11.41598,1.74077 c 1.60809,0.24521 -1.66918,-0.0514 -1.82262,-1.06704 -0.63473,-4.20124 -1.27898,-7.33586 -1.92736,-9.37763 L 388.86797,447.36 h 0.74663 c 0.41064,0 6.37641,1.37417 9.38101,2.59945 12.31464,5.41836 19.64774,17.92756 28.20932,27.80997 11.17871,12.90329 20.5572,23.74731 20.69101,23.58256 l 50.29205,-54.29055 11.05205,0.29135 c 0,0 -0.11802,132.63884 0.0498,138.00722 0.19752,6.31847 0.18045,6.6006 -0.38113,6.5985 z"
         id="path2" />
    </g>
    <path
       id="rect9"
       style="fill:#000000;stroke:none;stroke-width:97.7453;stroke-linecap:round;stroke-linejoin:round;stroke-opacity:0.658228"
       d="m 373.54492,183.14648 c -64.71709,0.11331 -116.49609,0.51563 -116.49609,0.51563 -24.29308,-0.3686 -46.95564,18.76188 -49.04883,43.43555 v 709.17578 c -3.42093,25.2192 13.97332,51.51581 39.74609,55.13086 53.21612,1.01972 106.65424,0.1974 159.95508,0.50976 l 147.37695,0.0801 C 581.13297,995.23935 606.76726,975.21782 609,948.90234 V 239.72656 c -0.65844,-39.60484 -14.88745,-52.53378 -41.33203,-55.35937 -51.75047,-1.15829 -129.40596,-1.33401 -194.12305,-1.22071 z m 181.98633,24.33985 c 12.75987,-0.22499 24.81472,10.01376 28.0957,23.19531 -0.008,235.18868 0.33808,467.19803 0.33008,702.38672 2.67781,14.49309 -4.3935,30.16241 -19.45703,33.91211 H 409 267.93164 c -14.41222,2.68531 -30.23077,-4.39391 -33.88867,-19.48047 -0.008,-234.58734 -0.0154,-469.17635 -0.0234,-703.76367 -2.27182,-14.06103 2.50747,-30.89996 17.83789,-34.94922 19.72707,-1.74605 40.14123,-0.31187 60.14258,-0.78906 v 5.60156 C 312,225.45519 320.17086,235 330.32031,235 H 490.67969 C 500.82914,235 509,225.45519 509,213.59961 v -6.01563 z" />
    <rect
       style="fill:#ffffff;stroke:none;stroke-width:196.476;stroke-linecap:round;stroke-linejoin:round;stroke-opacity:0.658228"
       id="rect10"
       width="508"
       height="334.91168"
       x="150"
       y="672"
       rx="18.320332"
       ry="102.38725" />
  </g>
</svg>
