<?xml version="1.0" encoding="UTF-8" standalone="no"?>
<!-- Created with Inkscape (http://www.inkscape.org/) -->

<svg
   version="1.1"
   id="svg1"
   width="273"
   height="53"
   viewBox="-2 -2 273 53"
   xmlns="http://www.w3.org/2000/svg"
   xmlns:svg="http://www.w3.org/2000/svg">
  <defs
     id="defs1" />
  <g
     id="g1"
     transform="translate(-91.148092,-36.218351)">
    <path
       id="rect41"
       style="fill:#ff0000;stroke:#ffffff;stroke-width:0;stroke-linecap:round;stroke-linejoin:round;stroke-opacity:0.658228"
       d="m 101.9497,44.02413 c 1.03145,0 1.86183,0.830376 1.86183,1.861829 v 9.791837 c 0,1.031453 -0.83038,1.861829 -1.86183,1.861829 -1.03146,0 -1.86183,-0.830376 -1.86183,-1.861829 v -9.791837 c 0,-1.031453 0.83037,-1.861829 1.86183,-1.861829 z" />
    <path
       id="rect41-8"
       style="fill:#ff0000;stroke:#ffffff;stroke-width:0;stroke-linecap:round;stroke-linejoin:round;stroke-opacity:0.658228"
       d="m 101.94752,63.754496 c 1.02668,0 1.85321,0.826531 1.85321,1.853209 v 9.94699 c 0,1.026678 -0.82653,1.853209 -1.85321,1.853209 -1.02668,0 -1.85321,-0.826531 -1.85321,-1.853209 v -9.94699 c 0,-1.026678 0.82653,-1.853209 1.85321,-1.853209 z" />
    <g
       id="g3">
      <path
         style="font-size:48px;font-family:Arial;-inkscape-font-specification:Arial;fill:#000000;stroke:#ffffff;stroke-width:0;stroke-linecap:round;stroke-linejoin:round;stroke-opacity:0.658228"
         d="m 209.26455,69.94519 0.60937,3.726563 q -1.78125,0.375 -3.1875,0.375 -2.29687,0 -3.5625,-0.726563 -1.26562,-0.726562 -1.78125,-1.898437 -0.51562,-1.195313 -0.51562,-4.992188 V 52.109253 h -3.09375 v -3.28125 h 3.09375 V 42.66394 l 4.19531,-2.53125 v 8.695313 h 4.24219 v 3.28125 h -4.24219 V 66.66394 q 0,1.804688 0.21094,2.320313 0.23437,0.515625 0.72656,0.820312 0.51563,0.304688 1.45313,0.304688 0.70312,0 1.85156,-0.164063 z"
         id="path9" />
      <path
         style="font-size:48px;font-family:Arial;-inkscape-font-specification:Arial;fill:#000000;stroke:#ffffff;stroke-width:0;stroke-linecap:round;stroke-linejoin:round;stroke-opacity:0.658228"
         d="M 184.02236,73.718628 V 48.828003 h 3.79688 v 3.773437 q 1.45312,-2.648437 2.67187,-3.492187 1.24219,-0.84375 2.71875,-0.84375 2.13281,0 4.33594,1.359375 l -1.45313,3.914062 q -1.54687,-0.914062 -3.09375,-0.914062 -1.38281,0 -2.48437,0.84375 -1.10156,0.820312 -1.57031,2.296875 -0.70313,2.25 -0.70313,4.921875 v 13.03125 z"
         id="path8" />
      <path
         id="path7"
         style="font-size:48px;font-family:Arial;-inkscape-font-specification:Arial;fill:#000000;stroke:#ffffff;stroke-width:0;stroke-linecap:round;stroke-linejoin:round;stroke-opacity:0.658228"
         d="m 167.89809,48.265226 c -2.14062,0 -4.02344,0.296877 -5.64844,0.890625 -1.62498,0.578123 -2.86719,1.414066 -3.72656,2.507812 -0.85937,1.078124 -2.57232,2.985727 -1.85156,4.265625 0.72076,1.279898 2.65645,1.123364 4.125,0.5625 0.45313,-1.76562 1.14844,-2.992189 2.08594,-3.679687 0.95312,-0.703124 2.42187,-1.054688 4.40625,-1.054688 2.12498,0 3.72658,0.476565 4.80468,1.429688 0.79688,0.703123 1.19532,1.914066 1.19532,3.632812 0.066,1.984283 -0.0113,3.964197 -0.0235,5.953125 0,1.859373 -0.22656,3.265628 -0.67969,4.21875 -0.59374,1.234374 -1.52344,2.21094 -2.78906,2.929688 -1.26563,0.703123 -2.71094,1.054687 -4.33594,1.054687 -1.64062,0 -2.89063,-0.375 -3.75,-1.125 -0.84374,-0.749998 -1.26562,-1.687502 -1.26562,-2.8125 0,-0.734372 0.19531,-1.398439 0.58593,-1.992187 0.39063,-0.609374 0.94531,-1.070313 1.66407,-1.382813 0.71874,-0.312498 1.94532,-0.59375 3.67968,-0.84375 l 6.59193,-1.110524 0.0655,-3.700635 c 0,0 -4.11019,0.986583 -7.29018,1.365847 -1.67187,0.203124 -2.92187,0.414064 -3.75,0.632812 -1.125,0.3125 -2.14063,0.773439 -3.04687,1.382813 -0.89063,0.609373 -1.61719,1.421877 -2.17969,2.4375 -0.54687,0.999998 -0.82031,2.109377 -0.82031,3.328125 0,2.078121 0.73438,3.789066 2.20312,5.132812 1.46875,1.328124 3.57032,1.992188 6.30469,1.992188 1.65624,0 3.20314,-0.273438 4.64062,-0.820313 1.45313,-0.546873 2.96094,-1.484376 4.52344,-2.8125 0.125,1.171874 0.40625,2.195315 0.84375,3.070313 l 3.26563,-0.03906 c -0.18063,-1.100187 -0.19532,-4.8986 -0.19532,-16.015625 0,-1.874996 -0.0703,-3.171875 -0.21093,-3.890625 -0.25,-1.156246 -0.6875,-2.109375 -1.3125,-2.859375 -0.625,-0.765622 -1.60157,-1.398438 -2.92969,-1.898437 -1.32813,-0.5 -3.05469,-0.75 -5.17969,-0.75 z" />
      <path
         style="font-size:48px;font-family:Arial;-inkscape-font-specification:Arial;fill:#000000;stroke:#ffffff;stroke-width:0;stroke-linecap:round;stroke-linejoin:round;stroke-opacity:0.658228"
         d="M 117.38955,73.718628 V 48.828003 h 3.77344 v 3.492187 c 0.78125,-1.21875 1.82031,-2.195312 3.11718,-2.929687 1.29688,-0.75 2.77344,-1.125 4.42969,-1.125 1.84375,0 3.35157,0.382812 4.52344,1.148437 1.1875,0.765625 2.02344,1.835938 2.50781,3.210938 1.96875,-2.90625 4.53125,-4.359375 7.6875,-4.359375 2.46875,0 4.36719,0.6875 5.69531,2.0625 1.32813,1.359375 1.99219,3.460937 1.99219,6.304687 V 73.718628 H 146.9208 V 58.03894 c 0,-1.6875 -0.14063,-2.898437 -0.42188,-3.632812 -0.26562,-0.75 -0.75781,-1.351563 -1.47656,-1.804688 -0.71875,-0.453125 -1.5625,-0.679687 -2.53125,-0.679687 -1.75,0 -3.20312,0.585937 -4.35937,1.757812 -1.15625,1.15625 -1.73438,3.015625 -1.73438,5.578125 v 14.460938 l -4.49359,7.84e-4 0.27484,-16.172659 c 0.0319,-1.874728 -0.34375,-3.28125 -1.03125,-4.21875 -0.6875,-0.9375 -1.8125,-1.40625 -3.375,-1.40625 -1.1875,0 -2.28906,0.3125 -3.30469,0.9375 -1,0.625 -1.72656,1.539062 -2.17968,2.742187 -0.45313,1.203125 -0.67969,2.9375 -0.67969,5.203125 v 12.914063 z"
         id="path3" />
      <path
         d="m 101.65836,48.359764 c -1.29553,0 -2.512912,0.171876 -3.652352,0.515625 -1.12383,0.328125 -2.01435,0.734375 -2.66992,1.21875 -0.87409,0.625 -1.56889,1.414064 -2.08398,2.367188 -0.49949,0.937499 -0.74805,1.960938 -0.74805,3.070312 0,1.218749 0.30337,2.335939 0.91211,3.351563 0.62435,0.999999 1.53053,1.789063 2.71679,2.367187 1.20188,0.5625 3.34892,1.234376 6.439462,2.015625 2.29449,0.578124 3.72911,1.054688 4.30664,1.429688 0.82726,0.546875 1.24219,1.296876 1.24219,2.25 0,1.062499 -0.46973,1.992188 -1.40625,2.789062 -0.93653,0.781249 -2.37116,1.171875 -4.30664,1.171875 -1.91988,0 -3.419092,-0.445313 -4.496102,-1.335937 -1.0614,-0.890624 -1.70923,-2.171877 -1.94336,-3.84375 l -4.16797,0.65625 c 0.46826,2.640622 1.54668,4.632814 3.23243,5.976562 1.70135,1.343749 4.16742,2.015625 7.398432,2.015625 1.9511,0 3.69888,-0.335938 5.24414,-1.007812 1.54527,-0.6875 2.7235,-1.648439 3.53516,-2.882813 0.82727,-1.249998 1.24023,-2.578126 1.24023,-3.984375 0,-1.437498 -0.33468,-2.640626 -1.00586,-3.609375 -0.67117,-0.968749 -1.60084,-1.703125 -2.7871,-2.203125 -1.17067,-0.515625 -3.24529,-1.171876 -6.22657,-1.96875 -2.06036,-0.562499 -3.301222,-0.921875 -3.722652,-1.078125 -0.73361,-0.296875 -1.27379,-0.671876 -1.61719,-1.125 -0.34339,-0.437499 -0.51367,-0.929687 -0.51367,-1.476562 0,-0.859374 0.41297,-1.609376 1.24023,-2.25 0.82727,-0.640624 2.209042,-0.960938 4.144532,-0.960938 1.63893,0 2.90327,0.359376 3.79297,1.078125 0.90531,0.71875 1.45137,1.718752 1.63867,3 l 4.1211,-0.5625 c -0.26535,-1.609373 -0.74878,-2.890626 -1.45117,-3.84375 -0.7024,-0.968749 -1.79647,-1.734375 -3.2793,-2.296875 -1.46723,-0.562499 -3.17586,-0.84375 -5.12695,-0.84375 z"
         style="font-size:48px;font-family:Arial;-inkscape-font-specification:Arial;white-space:pre;inline-size:115.11;fill:#000000;stroke:#ffffff;stroke-width:0;stroke-linecap:round;stroke-linejoin:round;stroke-opacity:0.658228"
         id="path5" />
    </g>
    <g
       id="g6"
       transform="translate(-218.49169,-7.831243)">
      <g
         id="g7">
        <path
           d="m 328.02716,72.065212 c -0.63382,0.02358 -0.95898,0.969099 -0.95898,2.796875 0,2.088887 0.42544,3.024854 1.25,2.75 0.6875,-0.229167 1.25,-1.466668 1.25,-2.75 0,-1.283332 -0.5625,-2.520833 -1.25,-2.75 -0.10307,-0.03436 -0.20047,-0.05024 -0.29102,-0.04687 z"
           id="path41"
           style="fill:#ffffff" />
        <path
           style="fill:#ffffff"
           d="m 314.37965,63.096148 c 0,-2.998015 -0.11197,-3.102318 -1.6641,-1.550188 -1.37467,1.374669 -1.44033,1.933714 -0.37755,3.214286 1.80487,2.174736 2.04165,1.981741 2.04165,-1.664098 z"
           id="path25" />
      </g>
    </g>
    <path
       id="rect41-8-4"
       style="fill:#ff0000;stroke:#ffffff;stroke-width:0;stroke-linecap:round;stroke-linejoin:round;stroke-opacity:0.658228"
       d="m 100.87228,53.30667 h 2.15096 c 0.43086,0 0.77773,0.346865 0.77773,0.777726 v 12.097956 c 0,0.43086 -0.34687,0.777726 -0.77773,0.777726 h -2.15096 c -0.43086,0 -0.77773,-0.346866 -0.77773,-0.777726 V 54.084396 c 0,-0.430861 0.34687,-0.777726 0.77773,-0.777726 z" />
  </g>
  <g
     id="g9"
     transform="translate(-2)">
    <path
       id="path18"
       style="font-size:48px;font-family:Arial;-inkscape-font-specification:Arial;stroke:#ffffff;stroke-width:0;stroke-linecap:round;stroke-linejoin:round;stroke-opacity:0.658228"
       d="m 257.04883,11.863281 c -3.4375,0 -6.23438,1.156253 -8.39063,3.46875 -2.15625,2.312498 -3.23437,5.562504 -3.23437,9.75 0,4.046872 1.0625,7.195315 3.1875,9.445313 2.14062,2.234372 5.03125,3.351562 8.67187,3.351562 2.89062,0 5.26562,-0.703126 7.125,-2.109375 1.85937,-1.406248 3.13282,-3.382815 3.82032,-5.929687 l -4.35938,-0.539063 c -0.64062,1.781248 -1.50781,3.078126 -2.60156,3.890625 -1.09375,0.812499 -2.41406,1.21875 -3.96094,1.21875 -2.07812,0 -3.8125,-0.726564 -5.20312,-2.179687 -1.39063,-1.453124 -2.16407,-3.546878 -2.32032,-6.28125 h 18.5625 c 0.0156,-0.5 0.0234,-0.875 0.0234,-1.125 0,-4.109371 -1.05469,-7.296878 -3.16406,-9.5625 -2.10937,-2.265623 -4.82813,-3.398438 -8.15625,-3.398438 z m 0.0469,3.46875 c 2.14062,0 3.88281,0.812502 5.22657,2.4375 0.87499,1.046875 1.40625,2.61719 1.59375,4.710938 h -13.89844 c 0.14062,-2.171873 0.86719,-3.906252 2.17969,-5.203125 1.32812,-1.296874 2.96094,-1.945313 4.89843,-1.945313 z" />
    <path
       style="font-size:48px;font-family:Arial;-inkscape-font-specification:Arial;stroke:#ffffff;stroke-width:0;stroke-linecap:round;stroke-linejoin:round;stroke-opacity:0.658228"
       d="M 236.07182,37.316429 V 2.9570541 h 4.21875 V 37.316429 Z"
       id="path16" />
    <path
       style="font-size:48px;font-family:Arial;-inkscape-font-specification:Arial;stroke:#ffffff;stroke-width:0;stroke-linecap:round;stroke-linejoin:round;stroke-opacity:0.658228"
       d="M 225.52494,37.316429 V 12.425804 h 4.21875 v 24.890625 z"
       id="path15" />
    <path
       style="font-size:48px;font-family:Arial;-inkscape-font-specification:Arial;stroke:#ffffff;stroke-width:0;stroke-linecap:round;stroke-linejoin:round;stroke-opacity:0.658228"
       d="m 225.52494,7.8086166 c -1.14352,-1.1435242 -1.14352,-3.7080383 0,-4.8515625 0.99437,-0.9943689 3.22438,-0.9943689 4.21875,0 1.14352,1.1435242 1.14352,3.7080383 0,4.8515625 -0.99437,0.9943689 -3.22438,0.9943689 -4.21875,0 z"
       id="path14" />
    <path
       id="path13"
       style="font-size:48px;font-family:Arial;-inkscape-font-specification:Arial;stroke:#ffffff;stroke-width:0;stroke-linecap:round;stroke-linejoin:round;stroke-opacity:0.658228"
       d="M 198.7832,2.9570312 V 37.316406 h 3.91407 v -3.117187 c 1.67187,2.453122 3.97656,3.679687 6.91406,3.679687 2.95312,0 5.48438,-1.164065 7.59375,-3.492187 2.10937,-2.328123 3.16406,-5.625005 3.16406,-9.890625 0,-1.796874 -0.25,-3.484377 -0.75,-5.0625 -0.5,-1.578124 -1.19532,-2.921877 -2.08594,-4.03125 -0.875,-1.124999 -2,-1.992188 -3.375,-2.601563 -1.35938,-0.624999 -2.80469,-0.9375 -4.33593,-0.9375 -2.76563,0 -5.03907,1.11719 -6.82032,3.351563 V 2.9570312 Z m -16.57031,8.9062498 c -3.07812,0 -5.6875,0.921877 -7.82812,2.765625 -2.5625,2.218748 -3.84375,5.632817 -3.84375,10.242188 0,4.20312 1.07031,7.421877 3.21093,9.65625 2.15625,2.234372 4.97657,3.351562 8.46094,3.351562 2.17188,0 4.17188,-0.507814 6,-1.523437 1.84375,-1.015625 3.24219,-2.437502 4.19531,-4.265625 0.96875,-1.843748 1.45313,-4.367191 1.45313,-7.570313 0,-3.95312 -1.08594,-7.046877 -3.25781,-9.28125 -2.17188,-2.249998 -4.96875,-3.375 -8.39063,-3.375 z m 27.23438,3.46875 c 1.82812,0 3.38281,0.773439 4.66406,2.320313 1.29687,1.546873 1.94531,3.945315 1.94531,7.195312 0,3.171872 -0.67188,5.562502 -2.01562,7.171875 -1.34376,1.593749 -2.93751,2.390625 -4.78125,2.390625 -2.26563,0 -4.0625,-1.08594 -5.39063,-3.257812 -0.8125,-1.328124 -1.21875,-3.484379 -1.21875,-6.46875 0,-3.031247 0.67187,-5.343752 2.01563,-6.9375 1.34374,-1.609374 2.93749,-2.414063 4.78125,-2.414063 z m -27.23438,0.02344 c 2.07813,0 3.8125,0.796876 5.20313,2.390625 1.40624,1.578123 2.10937,3.906252 2.10937,6.984375 0,3.265621 -0.69532,5.695314 -2.08594,7.289062 -1.39062,1.593749 -3.13281,2.390625 -5.22656,2.390625 -2.10937,0 -3.85937,-0.789064 -5.25,-2.367187 -1.39062,-1.593749 -2.08594,-3.984378 -2.08594,-7.171875 0,-3.187497 0.69532,-5.570314 2.08594,-7.148438 1.39063,-1.578123 3.14063,-2.367187 5.25,-2.367187 z" />
    <path
       style="font-size:48px;font-family:Arial;-inkscape-font-specification:Arial;stroke:#ffffff;stroke-width:0;stroke-linecap:round;stroke-linejoin:round;stroke-opacity:0.658228"
       d="M 132.12653,37.316429 V 12.425804 h 3.77343 v 3.492188 q 1.17188,-1.828125 3.11719,-2.929688 1.94531,-1.125 4.42969,-1.125 2.76562,0 4.52344,1.148438 1.78125,1.148437 2.50781,3.210937 2.95312,-4.359375 7.6875,-4.359375 3.70312,0 5.69531,2.0625 1.99219,2.039063 1.99219,6.304688 v 17.085937 h -4.19531 V 21.636742 q 0,-2.53125 -0.42188,-3.632813 -0.39844,-1.125 -1.47656,-1.804687 -1.07813,-0.679688 -2.53125,-0.679688 -2.625,0 -4.35938,1.757813 -1.73437,1.734375 -1.73437,5.578125 v 14.460937 h -4.21875 V 21.144554 q 0,-2.8125 -1.03125,-4.21875 -1.03125,-1.40625 -3.375,-1.40625 -1.78125,0 -3.30469,0.9375 -1.5,0.9375 -2.17969,2.742188 -0.67968,1.804687 -0.67968,5.203125 v 12.914062 z"
       id="text9" />
  </g>
</svg>
