<?xml version="1.0" encoding="UTF-8" standalone="no"?>
<!-- Created with Inkscape (http://www.inkscape.org/) -->

<svg
   version="1.1"
   id="svg1"
   width="273"
   height="53"
   viewBox="-2 -2 273 53"
   xmlns="http://www.w3.org/2000/svg"
   xmlns:svg="http://www.w3.org/2000/svg">
  <defs
     id="defs1" />
  <g
     id="g1"
     transform="translate(-87.148092,-36.218351)">
    <g
       id="g42"
       style="display:inline;fill:#000000">
      <path
         d="m 334,65 c 0,-16.333333 0.0784,-17 2,-17 1.79714,0 2,0.666667 2,6.57258 v 6.57258 l 2.63486,-2.07258 c 3.67572,-2.891321 7.90796,-2.668928 10.91289,0.573443 2.25808,2.436508 2.45225,3.426268 2.45225,12.5 C 354,81.333333 353.86469,82 352,82 c -1.84864,0 -2,-0.666667 -2,-8.80887 0,-10.485537 -1.00903,-12.499766 -6.02134,-12.019842 -4.61331,0.441721 -5.94544,3.36303 -5.96392,13.078712 C 338.00128,81.328419 337.82669,82 336,82 c -1.92157,0 -2,-0.666667 -2,-17 z"
         id="path35"
         style="fill:#000000" />
      <path
         d="m 294.13477,57.082031 c -2.13128,0.0049 -3.06682,0.708065 -5.3379,3.007813 -2.84,2.875858 -3.04381,3.391718 -1.47265,3.71289 1.00343,0.205117 2.61324,-0.341635 3.57812,-1.214843 C 294.37034,59.449404 301,61.085605 301,65.080078 c 0,1.342725 -1.23356,1.769489 -6.14844,2.125 -4.96154,0.358886 -6.52165,0.905051 -8.08203,2.832031 -2.37098,2.928035 -1.75127,7.643223 1.34375,10.212891 2.82131,2.342426 7.03239,2.210249 10.25195,-0.322266 L 301,77.855469 v 2.072265 C 301,81.333646 301.64332,82 303,82 c 1.86517,0 2,-0.666132 2,-9.888672 0,-12.026722 -1.11407,-14.032495 -8.24219,-14.835937 -1.07038,-0.120648 -1.91262,-0.194977 -2.62304,-0.19336 z M 296.04883,71 C 300.19385,71 301,71.300826 301,72.845703 c 0,1.014756 -0.82232,2.589758 -1.82813,3.5 -2.46548,2.231236 -7.83228,2.159349 -9.05273,-0.121094 C 288.36169,72.940795 290.56408,71 296.04883,71 Z"
         id="path39"
         style="fill:#000000" />
      <path
         d="m 265.24138,80.67477 c -1.24223,-0.689898 -3.01105,-2.328622 -3.93071,-3.641609 -2.10231,-3.001471 -2.28957,-10.828979 -0.34603,-14.464262 3.46619,-6.483319 13.33999,-7.404071 17.75356,-1.655556 2.94755,3.839078 0.0613,5.710488 -3.2182,2.086657 -2.38851,-2.63927 -7.61759,-2.63253 -10.01168,0.01291 -1.19084,1.31587 -1.82165,3.562243 -1.82165,6.487095 0,5.634805 2.35278,8.5 6.97984,8.5 2.25354,0 3.74196,-0.64918 4.58556,-2 0.68696,-1.1 2.25613,-2 3.48704,-2 2.04168,0 2.13509,0.225892 1.06477,2.574996 -2.1725,4.768114 -9.57924,6.856199 -14.5425,4.099774 z"
         id="path32"
         style="fill:#000000" />
    </g>
    <path
       id="rect41-8-4"
       style="fill:#ff0000;stroke:#ffffff;stroke-width:0;stroke-linecap:round;stroke-linejoin:round;stroke-opacity:0.658228"
       d="m 319.36397,61.137913 h 2.15096 c 0.43086,0 0.77773,0.346865 0.77773,0.777726 v 12.097956 c 0,0.43086 -0.34687,0.777726 -0.77773,0.777726 h -2.15096 c -0.43086,0 -0.77773,-0.346866 -0.77773,-0.777726 V 61.915639 c 0,-0.430861 0.34687,-0.777726 0.77773,-0.777726 z" />
    <g
       id="g2">
      <path
         d="m 335.95473,47.284757 v 34.359375 h 4.21289 V 68.026945 c 0,-1.953123 0.23487,-3.484376 0.70313,-4.59375 0.46827,-1.109374 1.24918,-1.984376 2.3418,-2.625 1.10822,-0.65625 2.28645,-0.984375 3.53515,-0.984375 1.67015,0 2.95798,0.484376 3.86328,1.453125 0.92092,0.953124 1.38086,2.484377 1.38086,4.59375 v 15.773437 h 4.21485 V 65.870695 c 0,-2.437498 -0.2975,-4.296877 -0.89063,-5.578125 -0.57753,-1.281249 -1.54438,-2.281251 -2.90234,-3 -1.35797,-0.734374 -2.95894,-1.101563 -4.80078,-1.101563 -2.99689,0 -5.47861,1.140628 -7.44532,3.421875 V 47.284757 Z"
         style="font-size:48px;font-family:Arial;-inkscape-font-specification:Arial;white-space:pre;inline-size:115.11;fill:#0000ff;stroke:#ffffff;stroke-width:0;stroke-linecap:round;stroke-linejoin:round;stroke-opacity:0.658228"
         id="path2" />
      <path
         d="m 320.15005,56.191007 c -1.29553,0 -2.51291,0.171876 -3.65235,0.515625 -1.12383,0.328125 -2.01435,0.734375 -2.66992,1.21875 -0.87409,0.625 -1.56889,1.414064 -2.08398,2.367188 -0.49949,0.937499 -0.74805,1.960938 -0.74805,3.070312 0,1.218749 0.30337,2.335939 0.91211,3.351563 0.62435,0.999999 1.53053,1.789063 2.71679,2.367187 1.20188,0.5625 3.34892,1.234376 6.43946,2.015625 2.29449,0.578124 3.72911,1.054688 4.30664,1.429688 0.82726,0.546875 1.24219,1.296876 1.24219,2.25 0,1.062499 -0.46973,1.992188 -1.40625,2.789062 -0.93653,0.781249 -2.37116,1.171875 -4.30664,1.171875 -1.91988,0 -3.41909,-0.445313 -4.4961,-1.335937 -1.0614,-0.890624 -1.70923,-2.171877 -1.94336,-3.84375 l -4.16797,0.65625 c 0.46826,2.640622 1.54668,4.632814 3.23243,5.976562 1.70135,1.343749 4.16742,2.015625 7.39843,2.015625 1.9511,0 3.69888,-0.335938 5.24414,-1.007812 1.54527,-0.6875 2.7235,-1.648439 3.53516,-2.882813 0.82727,-1.249998 1.24023,-2.578126 1.24023,-3.984375 0,-1.437498 -0.33468,-2.640626 -1.00586,-3.609375 -0.67117,-0.968749 -1.60084,-1.703125 -2.7871,-2.203125 -1.17067,-0.515625 -3.24529,-1.171876 -6.22657,-1.96875 -2.06036,-0.562499 -3.30122,-0.921875 -3.72265,-1.078125 -0.73361,-0.296875 -1.27379,-0.671876 -1.61719,-1.125 -0.34339,-0.437499 -0.51367,-0.929687 -0.51367,-1.476562 0,-0.859374 0.41297,-1.609376 1.24023,-2.25 0.82727,-0.640624 2.20904,-0.960938 4.14453,-0.960938 1.63893,0 2.90327,0.359376 3.79297,1.078125 0.90531,0.71875 1.45137,1.718752 1.63867,3 l 4.1211,-0.5625 c -0.26535,-1.609373 -0.74878,-2.890626 -1.45117,-3.84375 -0.7024,-0.968749 -1.79647,-1.734375 -3.2793,-2.296875 -1.46723,-0.562499 -3.17586,-0.84375 -5.12695,-0.84375 z"
         style="font-size:48px;font-family:Arial;-inkscape-font-specification:Arial;white-space:pre;inline-size:115.11;fill:#0000ff;stroke:#ffffff;stroke-width:0;stroke-linecap:round;stroke-linejoin:round;stroke-opacity:0.658228"
         id="path5" />
      <path
         d="m 295.82387,56.191007 c -2.1384,0 -4.01926,0.296876 -5.64257,0.890625 -1.62332,0.578124 -2.86418,1.414064 -3.72266,2.507813 -0.85848,1.078124 -1.475,2.500002 -1.84961,4.265625 l 4.12109,0.5625 c 0.45266,-1.765623 1.14746,-2.992188 2.08399,-3.679688 0.95213,-0.703124 2.41807,-1.054687 4.40039,-1.054687 2.12279,0 3.72378,0.476563 4.80078,1.429687 0.79605,0.703124 1.19336,1.914064 1.19336,3.632813 0,0.15625 -0.008,0.523438 -0.0234,1.101562 -1.6077,0.5625 -4.11291,1.046876 -7.51562,1.453125 -1.67014,0.203125 -2.91883,0.414063 -3.7461,0.632813 -1.12383,0.312499 -2.13766,0.773438 -3.04297,1.382812 -0.8897,0.609374 -1.61581,1.421876 -2.17773,2.4375 -0.54631,0.999999 -0.82031,2.109376 -0.82031,3.328125 0,2.078123 0.73395,3.789064 2.20117,5.132813 1.46723,1.328124 3.56729,1.992187 6.29883,1.992187 1.65452,0 3.19875,-0.273437 4.63476,-0.820312 1.45162,-0.546874 2.95866,-1.484376 4.51953,-2.8125 0.12487,1.171874 0.40476,2.195313 0.8418,3.070312 h 4.40234 c -0.53069,-0.953124 -0.88886,-1.945313 -1.07617,-2.976562 -0.1717,-1.046874 -0.25781,-3.531254 -0.25781,-7.453125 v -5.625 c 0,-1.874998 -0.0705,-3.171876 -0.21094,-3.890625 -0.24974,-1.156249 -0.68619,-2.109376 -1.31054,-2.859375 -0.62436,-0.765624 -1.60099,-1.398438 -2.92774,-1.898438 -1.32675,-0.499999 -3.05103,-0.75 -5.17383,-0.75 z m 5.36133,12.960938 v 1.546875 c 0,1.859373 -0.22703,3.265626 -0.67969,4.21875 -0.59313,1.234374 -1.52084,2.210938 -2.78515,2.929687 -1.26432,0.703124 -2.70872,1.054688 -4.33203,1.054688 -1.63893,0 -2.88762,-0.375001 -3.7461,-1.125 -0.84287,-0.749999 -1.26367,-1.687501 -1.26367,-2.8125 0,-0.734374 0.19572,-1.398438 0.58594,-1.992188 0.39022,-0.609374 0.9441,-1.070313 1.66211,-1.382812 0.718,-0.3125 1.94321,-0.59375 3.67578,-0.84375 3.05932,-0.4375 5.35315,-0.968751 6.88281,-1.59375 z"
         style="font-size:48px;font-family:Arial;-inkscape-font-specification:Arial;white-space:pre;inline-size:115.11;fill:#0000ff;stroke:#ffffff;stroke-width:0;stroke-linecap:round;stroke-linejoin:round;stroke-opacity:0.658228"
         id="path4" />
      <path
         d="m 271.38051,56.191007 c -2.1384,0 -4.12104,0.507814 -5.94726,1.523438 -1.81062,0.999999 -3.16108,2.507814 -4.05078,4.523437 -0.8897,2.015623 -1.33399,4.36719 -1.33399,7.054688 0,4.156246 1.02949,7.351564 3.08985,9.585937 2.07597,2.218748 4.81604,3.328125 8.21875,3.328125 2.71593,0 5.00193,-0.804689 6.85937,-2.414062 1.87306,-1.624999 3.03563,-3.867191 3.48828,-6.726563 l -4.14258,-0.539062 c -0.29656,2.109373 -0.9992,3.671876 -2.10742,4.6875 -1.10823,1.015624 -2.49,1.523437 -4.14453,1.523437 -2.06036,0 -3.72984,-0.757813 -5.00976,-2.273437 -1.27992,-1.515623 -1.91993,-3.945316 -1.91993,-7.289063 0,-3.296872 0.66349,-5.703127 1.99024,-7.21875 1.32674,-1.531248 3.05103,-2.296875 5.17383,-2.296875 1.40479,0 2.59868,0.421876 3.58203,1.265625 0.99896,0.843749 1.69376,2.101565 2.08398,3.773438 l 4.09766,-0.632813 c -0.48387,-2.515623 -1.58577,-4.453126 -3.30274,-5.8125 -1.71696,-1.374998 -3.92467,-2.0625 -6.625,-2.0625 z"
         style="font-size:48px;font-family:Arial;-inkscape-font-specification:Arial;white-space:pre;inline-size:115.11;fill:#0000ff;stroke:#ffffff;stroke-width:0;stroke-linecap:round;stroke-linejoin:round;stroke-opacity:0.658228"
         id="path3" />
    </g>
    <g
       id="g41">
      <path
         d="m 227.02734,36.226562 c -5.17005,-0.133679 -10.38893,1.365909 -14.02539,4.425782 -5.21707,4.389881 -7.39648,9.796074 -7.39648,18.347656 0,11.114503 4.38548,18.375374 13.04883,21.601562 5.73965,2.137418 14.53564,1.201327 19.48828,-2.076171 11.78998,-7.802254 11.84534,-31.212105 0.0918,-38.990235 -3.19373,-2.113514 -7.18587,-3.204621 -11.20703,-3.308594 z m -0.21093,7.96875 C 233.73107,44.331308 238,49.858291 238,59 c 0,6.382754 -2.35032,11.61316 -6.08594,13.544922 -7.67456,3.968672 -15.89527,-0.549883 -17.41992,-9.574219 -1.64353,-9.727944 2.64295,-17.643432 10.09375,-18.642578 0.77014,-0.103275 1.51321,-0.146881 2.22852,-0.132813 z"
         style="fill:#ff0000"
         id="path37" />
      <path
         style="fill:#ff0000"
         d="m 177.07108,80.248446 c -3.88094,-1.978942 -6.67286,-5.452561 -7.63436,-9.498446 -0.63689,-2.67995 -0.54251,-2.749839 3.70487,-2.743677 3.79154,0.0055 4.57997,0.395692 6.0619,3 C 180.47921,73.248252 181.63308,74 183.7985,74 189.42974,74 190,72.130662 190,53.671259 V 37 h 4.5 4.5 l -0.002,17.25 c -10e-4,14.451785 -0.28518,17.803997 -1.75,20.665194 -3.31779,6.480553 -12.93973,9.02381 -20.17737,5.333252 z"
         id="path29" />
      <path
         d="m 145.02734,36.226562 c -5.17005,-0.133679 -10.38893,1.365909 -14.02539,4.425782 -5.21707,4.389881 -7.39648,9.796074 -7.39648,18.347656 0,11.114503 4.38548,18.375374 13.04883,21.601562 5.73965,2.137418 14.53564,1.201327 19.48828,-2.076171 11.78998,-7.802254 11.84534,-31.212105 0.0918,-38.990235 -3.19373,-2.113514 -7.18587,-3.204621 -11.20703,-3.308594 z m -0.21093,7.96875 C 151.73107,44.331308 156,49.858291 156,59 c 0,6.382754 -2.35032,11.61316 -6.08594,13.544922 -7.67456,3.968672 -15.89527,-0.549883 -17.41992,-9.574219 -1.64353,-9.727944 2.64295,-17.643432 10.09375,-18.642578 0.77014,-0.103275 1.51321,-0.146881 2.22852,-0.132813 z"
         style="fill:#ff0000"
         id="path36" />
      <path
         style="fill:#ff0000"
         d="M 95.071085,80.248446 C 91.190139,78.269504 88.398222,74.795885 87.43672,70.75 c -0.636889,-2.67995 -0.542515,-2.749839 3.704872,-2.743677 3.791535,0.0055 4.579971,0.395692 6.061898,3 C 98.479213,73.248252 99.633076,74 101.7985,74 107.42974,74 108,72.130662 108,53.671259 V 37 h 4.5 4.5 l -0.002,17.25 c -0.001,14.451785 -0.28518,17.803997 -1.75,20.665194 -3.31779,6.480553 -12.93973,9.02381 -20.177365,5.333252 z"
         id="path26" />
    </g>
    <g
       id="g6">
      <g
         id="g7">
        <path
           d="m 328.02716,72.065212 c -0.63382,0.02358 -0.95898,0.969099 -0.95898,2.796875 0,2.088887 0.42544,3.024854 1.25,2.75 0.6875,-0.229167 1.25,-1.466668 1.25,-2.75 0,-1.283332 -0.5625,-2.520833 -1.25,-2.75 -0.10307,-0.03436 -0.20047,-0.05024 -0.29102,-0.04687 z"
           id="path41"
           style="fill:#ffffff" />
        <path
           style="fill:#ffffff"
           d="m 314.37965,63.096148 c 0,-2.998015 -0.11197,-3.102318 -1.6641,-1.550188 -1.37467,1.374669 -1.44033,1.933714 -0.37755,3.214286 1.80487,2.174736 2.04165,1.981741 2.04165,-1.664098 z"
           id="path25" />
      </g>
    </g>
    <path
       id="rect41"
       style="fill:#ff0000;stroke:#ffffff;stroke-width:0;stroke-linecap:round;stroke-linejoin:round;stroke-opacity:0.658228"
       d="m 320.44139,51.855373 c 1.03145,0 1.86183,0.830376 1.86183,1.861829 v 9.791837 c 0,1.031453 -0.83038,1.861829 -1.86183,1.861829 -1.03146,0 -1.86183,-0.830376 -1.86183,-1.861829 v -9.791837 c 0,-1.031453 0.83037,-1.861829 1.86183,-1.861829 z" />
    <path
       id="rect41-8"
       style="fill:#ff0000;stroke:#ffffff;stroke-width:0;stroke-linecap:round;stroke-linejoin:round;stroke-opacity:0.658228"
       d="m 320.43921,71.585739 c 1.02668,0 1.85321,0.826531 1.85321,1.853209 v 9.94699 c 0,1.026678 -0.82653,1.853209 -1.85321,1.853209 -1.02668,0 -1.85321,-0.826531 -1.85321,-1.853209 v -9.94699 c 0,-1.026678 0.82653,-1.853209 1.85321,-1.853209 z" />
  </g>
</svg>
