<?xml version="1.0" encoding="UTF-8" standalone="no"?>
<!-- Created with Inkscape (http://www.inkscape.org/) -->

<svg
   version="1.1"
   id="svg1"
   width="853.33331"
   height="853.33331"
   viewBox="0 0 853.33331 853.33331"
   xmlns="http://www.w3.org/2000/svg"
   xmlns:svg="http://www.w3.org/2000/svg">
  <defs
     id="defs1" />
  <g
     id="g1"
     style="display:inline">
    <path
       style="display:inline;fill:#5c606c;fill-opacity:1"
       d="M 479.33398,702 466,702.42969 c -8.88317,0.28607 -13.95055,1.0297 -15.18164,2.22851 -1.54878,1.50819 -1.60031,5.07702 -0.32227,22.04883 0.83865,11.13672 1.81361,20.71765 2.16797,21.29102 0.79819,1.2915 22.86323,0.0539 27.09571,-1.51953 2.20413,-0.81941 2.96949,-2.00978 2.66601,-4.14649 -0.40082,-2.82211 -0.9511,-2.9724 -9.40039,-2.54883 -8.52982,0.4276 -9.05254,0.2802 -10.5293,-2.96093 -2.00136,-4.39253 0.30531,-7.48829 5.58008,-7.48829 6.59337,0 10.82553,-2.3191 10.34961,-5.66992 -0.38731,-2.72694 -1.0426,-2.96059 -7.25195,-2.58594 -4.95136,0.29876 -7.42325,-0.18497 -9,-1.76171 -4.98213,-4.98212 -2.04377,-8.28269 8.5332,-9.58789 8.02787,-0.99064 8.62695,-1.29616 8.62695,-4.39649 z"
       id="path115" />
    <path
       style="display:inline;fill:#5c606c;fill-opacity:1"
       d="m 385.33008,700.17773 c -3.79981,-0.20829 -4.28567,0.41137 -5.22461,2.67188 -1.21686,2.9296 -4.10547,29.3818 -4.10547,37.59766 0,2.52761 0.91623,4.00617 3,4.84375 5.38282,2.16362 21.25078,1.58437 26.24219,-0.95899 6.34667,-3.23392 9.89111,-10.67365 9.94531,-20.87305 0.08,-15.04873 -6.27571,-20.89662 -24.81445,-22.82812 -2.14255,-0.22323 -3.77637,-0.38369 -5.04297,-0.45313 z m 7.55469,9.76172 c 3.32591,0.36123 8.75423,2.80576 9.91601,4.97657 2.15793,4.03212 0.82291,16.48385 -2.11523,19.73046 -1.65906,1.83323 -4.11134,2.6875 -7.7168,2.6875 h -5.28516 l 0.94532,-13 c 0.52083,-7.14999 1.36206,-13.4392 1.86718,-13.9746 0.40567,-0.43 1.28004,-0.54034 2.38868,-0.41993 z"
       id="path114" />
    <path
       style="display:inline;fill:#5c606c;fill-opacity:1"
       d="m 530.61719,691.17578 c -1.08107,0.21296 -2.16969,0.63793 -3.08594,1.23828 -2.80973,1.84101 -3.39818,4.12583 -5.99023,23.25977 -1.58094,11.67018 -2.875,21.91899 -2.875,22.77344 0,2.08296 7.32629,1.99067 8.99609,-0.11329 0.72751,-0.91666 1.72231,-3.87917 2.20898,-6.58203 0.84597,-4.69827 1.21208,-4.98734 8.33789,-6.58203 l 7.45313,-1.66797 3.5625,4.36328 c 2.82543,3.46185 4.37604,4.27166 7.50195,3.91602 2.96037,-0.33681 3.92184,-1.12399 3.86524,-3.16406 -0.11442,-4.12629 -23.3663,-36.42006 -26.93555,-37.41016 -0.88504,-0.24551 -1.958,-0.24421 -3.03906,-0.0312 z m 2.51172,12.83399 c 0.47923,0.006 2.2822,2.48289 4.00781,5.5039 2.53655,4.44072 2.79257,5.7105 1.33398,6.63477 -0.99227,0.62878 -3.00404,1.15431 -4.4707,1.16601 -2.37493,0.0189 -2.61655,-0.70843 -2.20508,-6.64648 0.25411,-3.66712 0.85477,-6.6642 1.33399,-6.6582 z"
       id="path113" />
    <path
       id="path21"
       style="display:inline;fill:#48ce4b;fill-opacity:1"
       d="m 619.32611,303.11283 c -4.39041,-0.2245 -6.24553,3.32748 -7.70313,14.17773 l -3.98633,29.67383 c -0.67474,5.02273 -1.46342,10.31615 -2.21094,11.71289 -1.5564,2.90819 -2.20217,2.91778 -16.4414,0.20508 l -10.50977,-2.00196 0.86719,-9.33203 c 0.47702,-5.1325 1.24276,-9.93992 1.70117,-10.68164 0.53361,-0.8634 4.72284,-0.99377 11.64258,-0.36328 5.94456,0.54163 13.28867,1.26147 13.56554,-0.24603 l 1.92693,-10.49167 c 0.32644,-1.77736 -6.12398,-4.51324 -19.72684,-4.53378 -10.92847,-0.0165 -17.79571,2.26204 -20.72657,6.875 -3.67371,5.78214 -5.16237,28.73684 -2.34375,36.15039 1.69472,4.45744 9.62804,8.27572 20.7793,10.00195 12.89714,1.9965 19.64721,1.80041 24.57227,-0.71094 9.09767,-4.63901 10.56831,-8.70304 14.12109,-38.99804 1.075,-9.16667 2.32182,-19.09093 2.76953,-22.05469 0.89175,-5.90329 -0.31476,-7.65351 -6.24805,-9.06641 -0.74203,-0.1767 -1.42162,-0.28433 -2.04882,-0.3164 z m 0.7871,3.4375 c 1.98184,0 3.87736,0.27578 4.2129,0.61132 1.24064,1.24064 -4.99968,48.50007 -7.29493,55.2461 -0.84647,2.4879 -3.05231,5.65392 -4.90234,7.03515 -3.5506,2.65091 -10.40083,3.91485 -15.96875,2.94727 -1.83334,-0.3186 -7.50402,-1.23669 -12.60156,-2.04102 -16.1075,-2.54155 -19.10221,-8.55674 -15.42969,-30.98242 2.29772,-14.03068 8.26775,-17.52611 25.84766,-15.1289 10.17684,1.38771 11.51409,1.88534 11.49609,4.27539 -0.039,5.1733 -1.42922,5.70046 -11.97852,4.53711 -5.49999,-0.60653 -11.01392,-0.78874 -12.25195,-0.4043 -2.65022,0.82295 -4.54868,6.36728 -5.71289,16.68555 -1.08146,9.58488 -0.0762,10.40673 15.55664,12.73046 17.02006,2.52994 17.37176,2.24501 20.17774,-16.41015 1.19407,-7.93864 2.86355,-19.98425 3.70898,-26.76758 1.51229,-12.13391 1.59555,-12.33398 5.14062,-12.33398 z" />
    <path
       style="display:inline;fill:#5c606c;fill-opacity:1"
       d="m 317.51562,685.94336 c -1.55485,-0.11649 -2.65544,-0.003 -3.05468,0.39648 -1.41793,1.41793 -11.78402,36.60095 -11.79102,40.02149 -0.002,0.93239 1.4794,2.37183 3.29102,3.19726 4.27016,1.94562 6.41823,0.21478 8.54297,-6.87695 2.61978,-8.74407 6.76114,-6.97967 10.00781,4.26367 1.209,4.18684 3.23825,8.21812 4.50976,8.95899 1.27152,0.74086 3.44043,1.36637 4.82032,1.38867 2.58567,0.0418 2.59514,-2.57542 0.0488,-13.52149 -0.70221,-3.01869 -0.20009,-3.88716 3.28516,-5.68945 10.70414,-5.53532 10.63376,-21.37445 -0.11719,-26.47265 -6.13009,-2.90696 -14.8784,-5.31655 -19.54297,-5.66602 z m 6.92774,10.95312 c 0.8243,0.0472 1.86212,0.28781 3.19336,0.65235 5.84002,1.59921 7.89929,5.59126 5.09375,9.87305 -2.07918,3.17322 -3.48065,3.49726 -9.88281,2.2832 -2.89571,-0.54912 -3.08069,-1.04866 -2.26563,-6.15039 0.83097,-5.20134 1.38843,-6.79972 3.86133,-6.65821 z"
       id="path112" />
    <path
       style="display:inline;fill:#5c606c;fill-opacity:1"
       d="m 610.80469,662.80078 c -1.02682,0.14365 -2.13111,0.72047 -3.40821,1.6543 -2.51454,1.83869 -2.43279,2.2364 3.00977,14.59765 6.39104,14.51548 7.00016,19.81073 2.63086,22.8711 -7.32826,5.13291 -11.7407,1.52528 -19.14844,-15.65625 -4.89979,-11.36462 -5.18718,-11.7205 -9.14062,-11.33399 -6.04549,0.59104 -5.79978,4.12138 1.36523,19.5586 4.5851,9.87871 7.36696,14.19128 10.40625,16.13867 8.24234,5.28121 22.09251,1.76078 27.60742,-7.01758 3.78485,-6.02452 2.79078,-13.69182 -3.66601,-28.2793 -4.19952,-9.48773 -6.5758,-12.96414 -9.65625,-12.5332 z"
       id="path111" />
    <path
       style="display:inline;fill:#5c606c;fill-opacity:1"
       d="m 255.01562,662.66602 c -8.77878,0 -13.29918,3.65317 -18.29492,14.78515 -6.00219,13.37468 -3.26397,22.55958 8.59375,28.83008 12.13484,6.41706 22.90815,2.74067 29.6211,-10.10937 9.33518,-17.86959 0.0397,-33.50586 -19.91993,-33.50586 z m 2.06446,9.45117 c 2.5642,-0.2948 5.20531,0.71507 7.64648,3.15625 1.8,1.8 3.26024,4.6487 3.24414,6.33203 -0.0361,3.77524 -4.21698,13.19474 -6.75976,15.23047 -5.10594,4.08774 -11.55568,2.92987 -15.27344,-2.74414 -2.07979,-3.17416 -2.0655,-3.81452 0.24023,-10.22657 2.56865,-7.14315 6.62868,-11.25671 10.90235,-11.74804 z"
       id="path110" />
    <path
       style="display:inline;fill:#fb0401;fill-opacity:1"
       d="m 326.37109,627.03906 c -1.91741,0.16972 8.6999,4.99433 18.29493,8.08399 24.68431,7.9485 32.30583,9.60587 58.66796,12.75781 13.3601,1.59737 13.75094,1.59805 14.70118,0.0606 1.20469,-1.94923 -1.66862,-5.03362 -7.42578,-7.97071 -4.61159,-2.35264 -10.36964,-3.21241 -44.60938,-6.66601 -10.63158,-1.07237 -28.47083,-3.90441 -38,-6.03321 -0.82509,-0.18432 -1.35499,-0.25666 -1.62891,-0.23242 z"
       id="path109" />
    <path
       style="display:inline;fill:#5c606c;fill-opacity:1"
       d="m 672.75781,625.38672 c -0.95673,-0.20418 -2.37469,0.56022 -4.46093,2.02148 -2.25353,1.57844 -2.96888,3.41614 -2.98438,7.66797 -0.0319,8.73245 -1.17309,9.67654 -8.63281,7.13477 -5.56627,-1.89662 -6.71139,-1.91849 -10.0625,-0.18555 -7.37195,3.81218 -6.37155,5.46857 6.0664,10.04688 12.26934,4.51624 12.65039,5.08236 12.65039,18.80078 0,9.59408 0.37297,11.79297 2,11.79297 4.25383,0 7.33204,-5.05593 7.33204,-12.04102 0,-8.17703 1.89158,-9.31466 10.30273,-6.19727 5.27296,1.9543 6.33456,1.97767 9.72461,0.22461 7.52946,-3.89363 6.57905,-5.27643 -7.35938,-10.71875 -5.13333,-2.00432 -10.08334,-4.57469 -11,-5.71093 -1.01467,-1.25771 -1.66796,-6.13781 -1.66796,-12.47657 0,-6.9858 -0.31365,-10.01907 -1.90821,-10.35937 z"
       id="path108" />
    <path
       style="display:inline;fill:#5c606c;fill-opacity:1"
       d="m 194.36523,622.66602 c -2.33252,0 -25.03125,32.41339 -25.03125,35.74414 0,2.82594 14.09784,12.86699 20.89258,14.88086 8.68096,2.5729 15.79127,-3.63103 14.75,-12.86914 -0.52779,-4.68254 -0.24344,-5.76238 1.52149,-5.79688 4.39303,-0.0859 9.50195,-6.37311 9.50195,-11.69141 0,-1.41597 -1.26807,-4.18732 -2.81836,-6.1582 -3.45329,-4.39014 -16.41495,-14.10937 -18.81641,-14.10937 z M 197.99219,636 c 2.72805,0 7.47258,6.10772 6.57031,8.45898 -1.03873,2.7069 -5.66856,2.79963 -9.12891,0.18164 -2.2766,-1.7224 -2.36493,-2.32093 -0.77539,-5.29101 C 195.64393,637.50774 197.14394,636 197.99219,636 Z m -9.6543,14.84375 c 1.33327,-0.12202 2.80566,0.73505 4.74414,2.54102 3.23631,3.01506 3.75721,6.57677 1.31836,9.01562 -2.29478,2.29478 -3.88825,1.9962 -8.33594,-1.5625 -3.87015,-3.09661 -3.89837,-3.20843 -1.63672,-6.66016 1.38246,-2.10989 2.57689,-3.21196 3.91016,-3.33398 z"
       id="path107" />
    <path
       style="display:inline;fill:#fb0401;fill-opacity:1"
       d="m 572.06445,600 c -1.32652,0 -13.54465,5.44152 -27.15039,12.0918 -18.85064,9.2139 -25.55067,13.15948 -28.1582,16.57812 -1.88202,2.46746 -3.42188,5.12595 -3.42188,5.9082 0,0.78226 0.62184,1.42188 1.38282,1.42188 6.04456,0 57.28886,-24.18494 61.79492,-29.16406 2.10155,-2.32218 2.11211,-2.68867 0.12305,-4.67774 C 575.44761,600.97104 573.39096,600 572.06445,600 Z"
       id="path106" />
    <path
       style="display:inline;fill:#48ce4b;fill-opacity:1"
       d="m 333.23721,465.04263 c -1.3789,0.0915 -1.32306,-0.58554 -1.60011,2.47442 -0.19875,2.19514 -2.03394,7.36047 -3.54921,11.69193 -1.51528,4.33147 -2.75391,8.79363 -2.75391,9.91602 0,1.46554 1.0527,1.02998 3.73829,-1.54297 C 331.12905,485.61149 333.34692,484 334,484 c 0.65308,0 2.87095,1.61149 4.92773,3.58203 4.77602,4.57571 4.87196,2.41195 0.41993,-9.41601 -1.82544,-4.84974 -3.57209,-9.62077 -3.39665,-11.27501 0.23598,-2.22513 -0.74529,-1.97905 -2.7138,-1.84838 z m 0.46787,6.12925 c 0.37422,-0.0386 0.66017,0.6874 0.77398,1.32915 0.13441,0.75786 -0.0842,1.70556 -0.55397,1.77315 -0.5346,0.0769 -0.72661,-0.37495 -0.66871,-1.78051 0.032,-0.77663 0.2515,-1.30145 0.4487,-1.32179 z m 0.63476,6.71874 c 0.37039,0.0874 0.70918,0.3148 0.92383,0.66211 0.4293,0.69463 0.2122,1.61367 -0.48242,2.04297 -0.69462,0.4293 -1.61562,0.2122 -2.04492,-0.48242 -0.4293,-0.69462 -0.21221,-1.61367 0.48242,-2.04297 0.34731,-0.21465 0.75071,-0.26712 1.12109,-0.17969 z m -3.59375,3.44336 c 0.77661,0 1.04111,0.5987 0.58789,1.33204 -0.45323,0.73332 -1.08872,1.33398 -1.4121,1.33398 -0.32338,0 -0.5879,-0.60066 -0.5879,-1.33398 0,-0.73334 0.6355,-1.33204 1.41211,-1.33204 z m 6.58789,0 c 0.73333,0 1.33204,0.5987 1.33204,1.33204 0,0.73332 -0.59871,1.33398 -1.33204,1.33398 C 336.60065,484 336,483.39934 336,482.66602 c 0,-0.73334 0.60065,-1.33204 1.33398,-1.33204 z"
       id="path105" />
    <path
       style="display:inline;fill:#fb0401;fill-opacity:1"
       d="m 341.94727,459.22459 c -0.21879,-0.0397 -0.43163,-0.004 -0.63086,0.11914 -0.71,0.43881 -0.59275,2.11888 0.28125,4.03711 1.08993,2.39216 1.10067,4.15635 0.0391,6.48633 -0.80199,1.76017 -1.0648,3.5934 -0.58399,4.07422 1.3502,1.35019 4.28125,-3.40865 4.28125,-6.95118 0,-3.51716 -1.85522,-7.48768 -3.38671,-7.76562 z"
       id="path104" />
    <path
       style="display:inline;fill:#fb0401;fill-opacity:1"
       d="m 326.15234,459.14059 c -0.53174,-0.0536 -1.28219,0.56655 -2.08593,2.06836 -1.86068,3.47672 -1.78129,9.87692 0.14648,11.80469 2.34733,2.34732 3.95197,0.5477 2.12305,-2.38086 -1.22402,-1.95997 -1.24488,-3.53959 -0.0899,-6.59961 1.07454,-2.84677 0.79249,-4.80326 -0.0937,-4.89258 z"
       id="path103" />
    <path
       style="display:inline;fill:#fb0401;fill-opacity:1"
       d="m 347.21094,454.02731 c -0.25357,-0.0787 -0.48219,-0.0669 -0.67578,0.0527 -0.64496,0.39861 -0.33822,2.04449 0.68164,3.65625 3.35676,5.3049 3.68343,10.58849 0.98242,15.8789 -1.38941,2.72141 -2.20725,5.2654 -1.81836,5.6543 2.66643,2.66643 7.68414,-9.27656 6.46289,-15.38281 -0.85438,-4.2719 -3.85782,-9.30832 -5.63281,-9.85938 z"
       id="path102" />
    <path
       style="display:inline;fill:#fb0401;fill-opacity:1"
       d="m 320.5293,454.00781 c -2.30457,0.85254 -5.85352,8.05466 -5.85352,12.65821 0,2.56665 1.20838,6.64677 2.6836,9.0664 1.47521,2.41963 3.26658,4.03887 3.98046,3.59766 0.77825,-0.48098 0.43016,-2.1264 -0.86914,-4.10938 -2.81234,-4.29222 -2.77121,-12.50663 0.0859,-16.86718 1.45983,-2.22798 1.7662,-3.74247 0.86914,-4.29688 -0.26452,-0.16349 -0.56726,-0.17062 -0.89648,-0.0488 z"
       id="path101" />
    <path
       style="display:inline;fill:#fb0401;fill-opacity:1"
       d="m 692.53125,420.27148 c -0.86129,0.0475 -1.55215,0.23711 -1.86523,0.5586 -0.62617,0.64298 -2.4192,6.27058 -3.98438,12.5039 -1.56517,6.23334 -3.9489,14.95092 -5.29687,19.37305 -2.02254,6.63508 -2.20984,9.2566 -1.07422,15 1.54101,7.79374 4.24825,9.16845 6.48437,3.29297 4.03742,-10.60847 10.72754,-35.07997 11.43164,-41.81641 0.78796,-7.53884 0.72573,-7.72817 -2.80859,-8.61523 -0.9937,-0.24941 -2.02543,-0.34439 -2.88672,-0.29688 z"
       id="path100" />
    <path
       style="display:inline;fill:#fb0401;fill-opacity:1"
       d="m 168.38086,418.97461 c -0.46572,0.0207 -0.96443,0.1197 -1.49805,0.28906 -4.04388,1.28348 -4.50318,4.53234 -2.19531,15.53125 7.9362,37.82252 28.32658,81.19349 52.38867,111.4336 9.84698,12.37522 29.6984,32.28325 39.68945,39.80273 5.37883,4.04823 10.14262,7.94674 10.58594,8.66406 0.44332,0.71731 1.4578,1.30469 2.25391,1.30469 0.79611,0 -2.56764,-3.67944 -7.47461,-8.17578 -8.9712,-8.22048 -13.04828,-14.30877 -14.69727,-21.95508 -0.49005,-2.27232 -3.01683,-6.17362 -5.61718,-8.66797 -28.93172,-27.75218 -58.73276,-83.43365 -66.46289,-124.18359 -1.98784,-10.47904 -3.71265,-14.18757 -6.97266,-14.04297 z"
       id="path99" />
    <path
       style="display:inline;fill:#5c606c;fill-opacity:1"
       d="m 301.95898,397.61133 c -0.42909,-0.0264 -0.85205,0.0354 -1.26367,0.19336 -1.77278,0.68028 -2.0276,1.96057 -1.32226,6.66406 0.68629,4.57656 0.24148,7.05866 -2.07813,11.60547 -2.85796,5.60205 -2.88202,5.99907 -0.78906,12.63867 2.94669,9.34799 2.76945,12.4575 -1.83984,32.4043 -2.40482,10.40689 -4,21.01417 -4,26.59765 0,12.05246 -7.13186,46.66215 -11.31836,54.92383 -1.88387,3.71763 -5.17098,7.60304 -7.81055,9.23438 -2.50652,1.54911 -5.29276,4.59529 -6.19336,6.76953 -1.4561,3.51534 -1.25133,4.61237 1.84766,9.90039 1.9167,3.27063 4.70005,6.33322 6.18554,6.80469 1.48548,0.47148 5.23267,3.40355 8.32813,6.51757 3.8269,3.84988 9.04198,7.05961 16.29492,10.0293 5.86666,2.40209 12.76732,6.33841 15.33398,8.74609 6.65672,6.24442 10.08222,7.69224 15.87891,6.7129 3.8279,-0.64672 6.40448,-0.11479 10.90039,2.25195 5.31721,2.7991 7.56629,3.09288 23.2207,3.01758 9.53333,-0.0459 20.6419,-0.57407 24.6875,-1.17383 7.14589,-1.05939 7.5175,-0.95746 13,3.62305 3.1039,2.59322 7.5947,5.13918 9.97852,5.65625 2.38382,0.51706 8.6857,3.94072 14.00586,7.60937 9.08089,6.26195 10.06035,6.62415 16,5.92578 3.47984,-0.40915 7.52747,-0.22791 8.99414,0.40235 4.00767,1.72219 19.1029,1.55563 22.42188,-0.24805 1.60178,-0.87048 6.1676,-2.0333 10.14843,-2.58399 13.62196,-1.88437 17.95778,-8.87574 11.5293,-18.58984 -2.90125,-4.38408 -3.43359,-6.6939 -3.43359,-14.91797 0,-11.61387 1.7662,-14.79589 10.2207,-18.41992 3.24984,-1.39304 8.63855,-4.41176 11.97461,-6.70703 6.72371,-4.62605 7.34923,-4.62352 23.80469,0.0645 5.4551,1.5541 13.46686,2.67457 19.28125,2.69727 9.11454,0.0356 11.29295,0.63996 26,7.21679 8.82857,3.94805 19.3885,7.91628 23.46484,8.81836 7.00953,1.55118 7.78011,1.45322 14.23242,-1.8164 3.75229,-1.90143 9.70819,-4.10429 13.23438,-4.89453 7.88249,-1.7665 10.81215,-4.28262 11.93164,-10.25 0.47453,-2.52944 3.22862,-7.33214 6.11914,-10.67188 2.89051,-3.33973 6.14832,-7.4351 7.24023,-9.10156 1.09191,-1.66647 5.16922,-4.95998 9.06055,-7.31836 6.57813,-3.98678 7.46947,-5.17423 12.69922,-16.91602 6.28074,-14.10157 6.28661,-16.37307 0.0469,-23.05273 -3.92469,-4.2014 -4.30965,-4.31552 -12.26953,-3.59375 -6.47256,0.58692 -9.26082,0.21458 -13.13086,-1.75977 -6.1402,-3.13249 -7.07859,-5.50354 -4.5625,-11.52539 2.81852,-6.74565 2.42908,-13.5826 -1.125,-19.76172 L 645.82031,466 650.5,460.2168 c 3.88065,-4.79646 4.77718,-7.11467 5.24414,-13.57032 0.51594,-7.13284 0.19104,-8.3018 -3.87305,-13.96093 -3.7559,-5.23002 -4.44312,-7.33814 -4.48632,-13.76367 -0.0448,-6.67606 -0.38933,-7.63614 -2.85547,-7.98829 -1.85706,-0.26518 -4.21957,1.21216 -7,4.37891 -4.66529,5.31346 -5.15847,7.56162 -2.19922,10.01758 1.0984,0.91159 4.44132,5.31688 7.42773,9.78906 4.47356,6.6992 5.28735,8.88407 4.62696,12.4043 C 646.40525,452.74471 638.57128,460 633.91211,460 c -7.30295,0 -5.25992,8.51869 3.3457,13.95117 6.37355,4.02345 7.59643,7.67859 4.80664,14.35547 -2.59408,6.20852 -2.64333,12.94001 -0.12109,16.54102 3.37819,4.82302 14.93877,8.90509 22.89453,8.08398 5.53773,-0.57154 7.3706,-0.2435 9.05273,1.61524 2.72656,3.01281 2.69964,3.28363 -1.13476,11.32031 -1.78436,3.73993 -3.56225,7.84157 -3.95117,9.11523 -0.38891,1.27367 -3.66929,4.13796 -7.28907,6.36524 -3.61978,2.22726 -8.23361,6.28519 -10.25195,9.01757 -2.01834,2.73239 -5.72076,7.13772 -8.22851,9.78907 -2.50777,2.65134 -5.35232,7.12372 -6.32032,9.93945 -1.60804,4.6775 -2.50268,5.37119 -10.36523,8.02344 -4.73303,1.59658 -9.81413,3.55035 -11.29297,4.34179 -1.7668,0.94556 -4.92477,1.04256 -9.20703,0.28516 -7.66458,-1.35563 -24.66209,-8.28477 -29.32813,-11.95508 -1.79616,-1.41287 -5.67556,-2.97534 -8.61914,-3.47265 -4.31564,-0.72912 -5.06008,-1.25551 -3.8457,-2.71875 0.8283,-0.99804 1.11956,-2.43963 0.64648,-3.20508 -1.52114,-2.46127 -5.7677,-1.48744 -8.46484,1.9414 -2.74271,3.48679 -9.13826,4.56682 -11.72461,1.98047 -0.7438,-0.7438 -4.01449,-1.55123 -7.26953,-1.79492 -3.25505,-0.24368 -7.8369,-1.43594 -10.18164,-2.64844 -2.34473,-1.21251 -5.10968,-2.20507 -6.14453,-2.20507 -1.03486,0 -6.30773,3.0013 -11.7168,6.66796 C 503.79212,569.00065 498.53042,572 497.50781,572 c -2.94248,0 -10.35598,5.06142 -12.73828,8.69727 -3.93238,6.00157 -4.93791,15.73276 -2.65234,25.67187 1.13369,4.93001 2.88939,10.24461 3.90234,11.81055 2.22232,3.43553 1.28549,4.6974 -2.73828,3.6875 -1.79994,-0.45176 -5.8842,0.61958 -10.26367,2.6914 -8.34717,3.94885 -12.84322,4.29034 -18.43555,1.39844 -2.81039,-1.45331 -5.81336,-1.79768 -10.39844,-1.18945 -6.10323,0.80962 -6.91858,0.52666 -15.27539,-5.31446 -4.85527,-3.39366 -10.79565,-6.53171 -13.20117,-6.97265 -2.40553,-0.44094 -6.59148,-2.53124 -9.30273,-4.64649 -6.12139,-4.77575 -9.07944,-5.89878 -18.625,-7.07031 -6.42898,-0.78902 -7.75035,-0.57728 -8.86914,1.42188 -1.05636,1.8876 -2.97824,2.31791 -9.7793,2.19336 -17.52389,-0.32092 -21.72502,-0.99444 -26.22656,-4.20508 -3.8169,-2.72235 -5.36612,-3.03407 -11.20313,-2.25977 -6.44763,0.85531 -7.0036,0.67472 -11.57031,-3.73047 -2.96204,-2.85725 -8.95937,-6.21957 -15.67578,-8.78906 -10.78734,-4.1269 -13.04504,-5.72672 -15.75586,-11.16406 -1.25318,-2.51363 -3.46854,-4.29353 -12.20508,-9.80469 -2.37158,-1.49604 -2.3195,-1.72464 1.05664,-4.66601 6.09611,-5.31107 14.08081,-20.16453 15.05469,-28.00391 1.36025,-10.94946 4.69817,-27.68518 7.05469,-35.375 1.79166,-5.84658 1.86371,-7.76481 0.44922,-12.05078 -1.52144,-4.61002 -1.20535,-7.06988 3.31445,-25.71485 2.74868,-11.33875 5.12684,-20.78882 5.28515,-21.00195 0.15832,-0.21314 2.46396,0.89595 5.12305,2.46484 7.48598,4.41684 6.06112,0.3599 -2.51562,-7.1621 C 307.29233,429.38681 304,425.5591 304,424.4082 c 0,-1.1509 1.27341,-4.15509 2.83008,-6.67382 2.14653,-3.47313 2.65496,-5.89371 2.10156,-10.01954 -0.73136,-5.45274 -3.96899,-9.9188 -6.97266,-10.10351 z"
       id="path98" />
    <path
       style="display:inline;fill:#48ce4b;fill-opacity:1"
       d="m 679.51758,337.38281 c -4.92978,0.029 -9.13852,0.75819 -11.54492,2.17969 -4.73041,2.79432 -7.0759,8.30411 -10.55664,24.80859 -3.35414,15.90418 -3.41785,19.10706 -0.41602,20.85547 3.86959,2.25382 9.43949,1.68772 10.9375,-1.11133 0.75095,-1.40315 2.57446,-7.85381 4.05078,-14.33398 1.47631,-6.48016 2.99387,-13.13125 3.37305,-14.78125 0.84307,-3.66866 2.69327,-3.73934 17.58594,-0.67383 l 11.30078,2.32617 2.54297,-3.14062 c 5.41386,-6.68584 2.29374,-10.54699 -11.4043,-14.11133 -5.28926,-1.3763 -10.93936,-2.04653 -15.86914,-2.01758 z m -3.04688,3.09375 c 5.46189,-0.24332 13.30136,1.02152 24.86328,3.35938 4.1068,0.83041 4.63302,1.39486 4.39258,4.71484 -0.15027,2.07492 -0.51912,4.01912 -0.82031,4.32031 -0.30119,0.30119 -6.16269,-0.70183 -13.02539,-2.23047 -16.26365,-3.62266 -17.81484,-3.175 -20.45313,5.9004 -1.15174,3.96187 -2.09375,8.37113 -2.09375,9.79882 0,1.4277 -0.55191,4.33484 -1.2246,6.46094 -0.67271,2.12609 -1.58414,5.51655 -2.0254,7.5332 -0.78706,3.59704 -1.6887,3.97877 -6.45703,2.73829 -2.465,-0.64128 -2.37468,-4.37991 0.35157,-14.40625 0.5982,-2.2 1.83675,-7.78196 2.75195,-12.4043 2.13583,-10.78732 4.6371,-15.37963 13.74023,-15.78516 z"
       id="path97" />
    <path
       style="display:inline;fill:#5c606c;fill-opacity:1"
       d="m 314.50195,318.77344 c -2.49788,-0.11161 -5.91298,0.18293 -11.65625,0.82031 -15.46997,1.71686 -20.33589,3.89999 -23.48632,10.53906 -1.88278,3.96764 -2.15382,6.74094 -1.40235,14.36719 1.13042,11.47189 3.21273,16.79608 8.06055,20.60938 2.68609,2.11286 5.51079,2.88781 10.49609,2.88281 13.24786,-0.0145 20.75603,-3.91417 16.77344,-8.71289 -1.34981,-1.62641 -3.56381,-1.85114 -11.33984,-1.14649 -9.17677,0.83158 -9.76475,0.71665 -11.69532,-2.29492 -1.11801,-1.74403 -2.42492,-7.07122 -2.90429,-11.83789 -1.1979,-11.9114 -0.0258,-13.21384 13.48828,-14.99805 12.32295,-1.62695 17.29367,-0.79546 18.52929,3.09766 1.45487,4.58388 -2.69092,7.69087 -11.60351,8.69922 -9.49925,1.07472 -14.63402,4.4069 -11.88867,7.71484 3.60689,4.34604 23.00145,1.58058 28.66992,-4.08789 7.31297,-7.31297 5.31527,-19.64525 -3.89453,-24.03711 -2.06861,-0.98644 -3.6486,-1.50362 -6.14649,-1.61523 z"
       id="path96" />
    <path
       style="display:inline;fill:#5c606c;fill-opacity:1"
       d="m 228.7832,314.66602 c -4.34744,0 -5.44667,4.28452 -6.11718,23.85937 L 222,357.98828 209.72461,345.66016 C 197.38414,333.2663 192.98123,330.93272 189.61328,335 c -0.75905,0.91667 -3.21232,6.281 -5.45117,11.91992 -2.23885,5.63894 -5.22157,12.39962 -6.62891,15.02539 l -2.55859,4.77539 -3.26172,-6.36132 c -1.79379,-3.49805 -5.2197,-11.28293 -7.61328,-17.30079 -2.39358,-6.01786 -5.16681,-11.61734 -6.16211,-12.44336 -2.43858,-2.02383 -6.47558,-1.09729 -6.99609,1.60547 -0.47958,2.49026 17.21836,48.19886 20.43554,52.7793 4.30821,6.13378 7.86392,3.0082 13.26563,-11.66602 C 189.78828,359.35524 194.86113,348 195.96094,348 c 1.20523,0 9.07305,7.5829 20.42578,19.68359 4.97956,5.30765 10.10996,9.65039 11.40039,9.65039 5.12592,0 5.54687,-2.30147 5.54687,-30.35546 0,-26.83856 -0.77129,-32.3125 -4.55078,-32.3125 z"
       id="path95" />
    <path
       style="display:inline;fill:#48ce4b;fill-opacity:1"
       d="m 473.72852,297.49414 c -14.90179,7.38952 -16.33515,26.13059 -2.77344,36.25586 2.73158,2.03942 7.19334,2.86586 21.25195,3.94141 18.31169,1.40093 22.45899,2.82147 22.45899,7.68554 0,5.12925 -3.11223,5.74332 -24.38282,4.8086 -11.15573,-0.49024 -21.54331,-1.22985 -23.08398,-1.64258 -3.84449,-1.02989 -7.19922,2.67655 -7.19922,7.95312 0,6.48696 1.90569,7.48662 14.59961,7.66016 6.26999,0.0857 15.29975,0.62173 20.06641,1.19141 16.06996,1.92055 27.01019,-0.5458 31.24804,-7.04297 1.06627,-1.63474 2.56587,-5.78904 3.33399,-9.23242 1.86552,-8.36293 -0.37381,-14.90544 -6.90235,-20.16602 -4.68615,-3.77603 -5.97124,-4.08732 -21.33203,-5.18164 -20.02307,-1.42646 -23.67969,-2.64147 -23.67969,-7.86133 0,-5.20472 2.84389,-5.73044 26.21875,-4.85547 15.79667,0.5913 19.54513,0.3709 21.15625,-1.24023 C 527.10172,307.37484 527.27891,300.8146 525,299 c -0.91667,-0.72989 -11.38928,-2.08099 -23.27148,-3.00195 -12.31196,-0.69851 -17.36738,-3.77314 -28,1.49609 z m 13.44726,1.19922 c 6.86986,-0.24729 15.62919,0.0194 25.28906,0.83594 l 10.20118,0.86132 v 4.59766 4.5957 l -6.33204,-0.74804 c -3.48332,-0.41072 -13.04786,-1.12896 -21.2539,-1.59766 -14.891,-0.85052 -14.92715,-0.84629 -18.48242,2.70899 -2.8703,2.87028 -3.40313,4.35938 -2.74219,7.66406 1.26125,6.30625 4.02168,7.41676 20.80664,8.375 17.81721,1.01718 22.4979,2.20493 27.1875,6.89453 6.94095,6.94094 5.75848,20.23213 -2.35156,26.41797 -4.0956,3.12383 -5.37429,3.3524 -17.62305,3.14453 -13.61522,-0.23106 -18.84631,-0.54783 -30.875,-1.86719 -6.67584,-0.73223 -7,-0.94861 -7,-4.67187 0,-3.71022 0.2807,-3.90224 5.66602,-3.86524 3.11665,0.0214 13.38963,0.60455 22.82812,1.29492 21.29117,1.55735 24.77326,0.32167 24.81836,-8.79492 0.0351,-7.09644 -2.88039,-8.37255 -22.25195,-9.74609 -19.23554,-1.36389 -24.45924,-3.13926 -27.70508,-9.41602 -4.25208,-8.22261 -1.38689,-20.14815 5.87109,-24.43554 2.09887,-1.23984 7.07936,-2.00076 13.94922,-2.24805 z"
       id="path94" />
    <path
       style="display:inline;fill:#5c606c;fill-opacity:1"
       d="m 373.33398,292.66602 -2.49414,2.93554 c -2.26994,2.67084 -2.44315,4.88337 -1.92382,24.66602 0.82297,31.34868 2.482,36.86058 11.9414,39.69531 5.33751,1.59951 24.19313,1.61886 29.9082,0.0312 2.62112,-0.72812 6.22113,-2.8715 8,-4.76367 2.85657,-3.0385 3.28725,-4.89142 3.69141,-15.87109 0.74619,-20.2716 -3.74274,-26.0254 -20.30469,-26.0254 -11.25987,0 -15.80897,1.69117 -15.24414,5.66797 0.3935,2.77057 1.26829,3.04794 11.53711,3.66407 13.67313,0.82037 14.88867,2.02182 14.88867,14.71484 0,12.11371 -1.3084,13.15806 -17.03125,13.60547 -9.6951,0.27588 -12.61745,-0.0868 -14.31835,-1.77735 -1.73955,-1.729 -2.28642,-6.6507 -2.9375,-26.44531 -0.68944,-20.9607 -1.14056,-24.71965 -3.25782,-27.20898 z"
       id="path93" />
    <path
       style="display:inline;fill:#fb0401;fill-opacity:1"
       d="m 686.33398,276.39062 c -0.46884,0.0924 -0.94801,0.34638 -1.4414,0.75586 -1.46517,1.21599 -1.24691,3.81742 1.25,14.92579 2.80402,12.47466 4.45611,16.45175 7.8457,18.87304 2.70102,1.92942 3.07528,-1.21742 1.32422,-11.1582 -2.95982,-16.80304 -5.6966,-24.0434 -8.97852,-23.39649 z"
       id="path92" />
    <path
       style="display:inline;fill:#fb0401;fill-opacity:1"
       d="m 514.76172,117.80078 c -4.044,-0.21652 0.0885,4.17995 10.9043,11.30469 8.50903,5.6052 15.02068,8.80625 21,10.32422 11.10928,2.8203 10.13938,2.25291 31.77343,18.58593 10.14314,7.65775 20.49432,14.81419 23.00196,15.90235 5.24092,2.27424 11.89257,2.70248 11.89257,0.76562 0,-1.9027 -18.46375,-16.33483 -34.19531,-26.72851 C 560.58176,135.69472 531.4094,121.71672 517,118.18164 c -0.91583,-0.22468 -1.66057,-0.34993 -2.23828,-0.38086 z"
       id="path91" />
    <path
       id="path118"
       style="display:inline;fill:#5c606c;fill-opacity:1"
       d="m 355.92773,194.71094 c 2.26254,1.23772 5.26616,2.88201 7.61329,4.16601 0.29571,-0.85491 0.62514,-1.6338 1.00585,-2.21484 3.54843,-5.41558 13.79391,-10.91905 26.04688,-13.99219 13.74002,-3.44608 20.17448,-6.87029 23.42578,-12.46289 1.34538,-2.31421 2.93712,-4.54055 3.53711,-4.94726 0.59998,-0.4067 1.24501,-8.61127 1.43359,-18.23438 0.30055,-15.33707 0.68626,-17.96233 3.12891,-21.26172 3.53332,-4.77258 6.48907,-6.18525 20.88672,-9.99023 13.49267,-3.56584 15.23618,-3.07414 18.32812,5.17383 3.18724,8.5021 5.098,10.10095 11.10743,9.29492 7.18291,-0.96343 8.54161,-0.17662 12.21093,7.06445 2.12587,4.1952 4.56087,6.87333 7.27149,7.99609 2.24143,0.92843 4.07617,2.22377 4.07617,2.87891 0,2.05848 8.49527,6.47547 12.46484,6.48047 2.08917,0.003 5.68919,0.90203 8,1.99805 3.9791,1.88726 4.17751,2.33598 3.75196,8.47851 -0.39765,5.7397 -0.0319,6.81359 3.17968,9.33985 5.45939,4.29434 9.08353,3.65012 13.9375,-2.47852 5.13429,-6.48255 10.19521,-7.45265 8.68946,-1.66602 -1.96547,7.5534 -1.20484,11.36211 2.98047,14.91407 2.21591,1.88057 7.43398,6.33849 11.5957,9.9082 6.97543,5.98318 7.97024,6.42657 12.72656,5.66602 2.86464,-0.45807 6.83012,-0.14404 8.91602,0.70507 2.06632,0.84114 8.76078,1.59167 14.875,1.66797 10.22441,0.12751 11.31678,0.40494 13.60937,3.47071 7.62362,10.19472 8.35414,10.87032 11.01758,10.17382 1.5599,-0.40792 4.31351,0.44454 6.52539,2.01953 3.23949,2.30671 5.00877,2.58769 11.51953,1.83204 6.709,-0.77867 8.51684,-0.45438 14.15039,2.54101 3.55223,1.88874 8.44036,3.4336 10.86328,3.4336 5.51945,0 11.19727,2.50884 11.19727,4.94726 0,2.26158 -3.63126,9.59712 -6.21094,12.54688 -2.22017,2.53865 -9.35541,20.63508 -10.9707,27.82421 -1.301,5.79032 0.17054,9.34961 3.86719,9.34961 3.24133,0 4.29485,-2.03563 8.43554,-16.31836 1.8545,-6.39676 4.8926,-13.62671 6.75196,-16.06445 5.68213,-7.44966 9.14622,-16.65192 8.18945,-21.75195 -1.0775,-5.74355 -6.20113,-8.56745 -17.2793,-9.52735 -5.13338,-0.44479 -10.1839,-1.8985 -13.74023,-3.95507 -4.84219,-2.8002 -6.62948,-3.12652 -12.86328,-2.34766 -6.40594,0.80037 -7.98367,0.47598 -13.70899,-2.81055 -3.55868,-2.0428 -8.93369,-5.935 -11.94336,-8.65039 -5.67924,-5.12397 -13.3874,-7.24387 -23.42382,-6.4414 -2.43979,0.19508 -6.73222,-0.41703 -9.53711,-1.35938 -2.80491,-0.9424 -6.69238,-1.40917 -8.63868,-1.03711 -3.78414,0.72339 -8.37856,-1.82289 -15.8164,-8.76758 -3.94583,-3.68418 -4.17414,-4.39407 -3.50586,-10.86914 0.67479,-6.53801 0.47646,-7.12826 -3.54688,-10.51367 -4.82901,-4.06335 -10.23022,-4.60152 -16.03906,-1.59765 -3.56119,1.84154 -3.90571,1.80268 -4.64648,-0.53125 -1.6058,-5.05944 -7.45293,-9.18226 -16.41993,-11.58008 -9.9152,-2.65138 -20.20428,-10.25961 -26.26757,-19.42188 -1.92638,-2.91093 -4.77595,-5.36686 -6.6875,-5.76367 -1.83194,-0.38029 -4.80701,-0.99627 -6.60938,-1.36914 -1.93527,-0.40036 -4.96195,-3.13038 -7.39453,-6.66602 -2.26554,-3.29283 -5.99393,-6.95578 -8.28516,-8.14062 -1.99122,-1.0297 -3.20635,-1.52007 -5.81054,-1.23047 -2.60421,0.2896 -6.59745,1.35879 -14.14453,3.44922 -12.27171,3.39907 -16.9535,5.36784 -21.00977,8.83984 -6.45469,5.52499 -7.63195,9.28802 -8.61914,27.54492 -0.84519,15.63085 -2.9001,22.0002 -8.22656,25.49024 -1.76308,1.15521 -8.66395,3.56264 -15.33399,5.34766 -15.88724,4.25169 -24.83932,9.82949 -30.63672,19.41992 z m 0,0 c -0.94698,1.56656 -1.83334,3.21372 -2.62695,5.00781 l -2.62305,5.92578 -8.99609,-0.96289 c -14.95847,-1.60192 -17.81342,-3.05081 -19.84961,-10.08008 -2.95407,-10.19793 -6.18535,-12.1432 -22.45117,-13.50586 -14.65601,-1.2278 -19.04219,-0.32304 -23.29297,4.79883 -2.98049,3.59127 1.15606,21.14368 7.09961,30.125 3.09546,4.67756 3.54669,6.58958 3.20703,13.58984 L 286,237.75586 l -6.77734,2.29883 c -3.72783,1.2642 -10.32915,2.70516 -14.66797,3.20117 l -7.88867,0.90039 -6.64844,-6.77734 c -4.0216,-4.09968 -8.50161,-7.26422 -11.33399,-8.00586 -6.08248,-1.59267 -20.05262,0.13702 -24.46679,3.02929 -1.90106,1.24562 -5.39087,2.26368 -7.75586,2.26368 -10.87787,0 -35.44006,6.56925 -38.84961,10.39062 -4.96256,5.56194 -5.6511,17.16617 -1.42188,23.94336 1.02966,1.65 1.28537,3 0.56836,3 -2.06156,0 -3.16756,8.74351 -1.5,11.85937 1.02097,1.90769 2.79941,2.80665 5.55078,2.80665 3.42442,0 3.98997,-0.46248 3.66211,-3 -0.53477,-4.13894 1.11951,-6.33204 4.77735,-6.33204 1.70026,0 3.77862,-0.82746 4.61718,-1.83789 1.19797,-1.44344 0.9474,-1.98732 -1.16992,-2.54101 -3.23068,-0.84485 -3.43437,-2.69063 -0.60937,-5.51563 2.88404,-2.88404 1.2669,-4.77343 -4.08594,-4.77343 -5.47559,0 -6.38594,-1.24885 -5.26563,-7.22071 0.65527,-3.49292 1.92987,-5.1064 5.29883,-6.70508 6.48664,-3.07809 17.34972,-4.97836 27.87305,-4.87695 7.86302,0.0758 9.88577,-0.4044 13.57812,-3.2207 3.37678,-2.5756 5.92701,-3.3086 11.50977,-3.3086 7.76388,0 9.19504,1.01234 17.58008,12.45899 3.30478,4.51142 4.25526,5.03794 7.92383,4.38867 14.09146,-2.4939 17.9623,-3.34772 21.92578,-4.83984 3.77903,-1.42269 5.04817,-1.32829 8.71875,0.64843 2.36281,1.27246 5.47229,2.08498 6.91015,1.80469 2.26681,-0.44188 2.62335,-1.65892 2.68164,-9.15234 0.11214,-14.41255 -1.81716,-24.98843 -5.60156,-30.70703 -1.98582,-3.00077 -3.74386,-7.92351 -4.13476,-11.57813 -0.37401,-3.49673 -1.19707,-7.01169 -1.82813,-7.8125 -2.15872,-2.7394 0.67322,-3.26885 12.74805,-2.38086 13.18359,0.96953 14.26473,1.65913 14.73437,9.39453 0.41221,6.78962 3.49484,9.14624 14.36328,10.98438 5.30798,0.89771 13.34893,2.54615 17.86915,3.66211 7.52896,1.85877 8.61595,1.84142 12.94921,-0.21485 4.39411,-2.08513 4.72236,-2.66026 4.61329,-8.09375 -0.0479,-2.387 0.39072,-4.98708 1.09375,-7.01953 -2.34713,-1.284 -5.35075,-2.92829 -7.61329,-4.16601 z" />
    <path
       id="path116"
       style="display:inline;fill:#fb0401;fill-opacity:1"
       d="m 277.31641,151.70703 c 1.91027,1.04502 8.40045,4.59403 10.4707,5.72656 1.65162,-1.02025 2.56259,-1.56044 4.16406,-2.55468 15.31653,-9.50896 32.84463,-18.07393 49.75195,-24.3125 12.11055,-4.46864 41.47546,-11.90039 47.02344,-11.90039 2.24724,0 5.19578,-1.65477 8.07422,-4.53321 5.01469,-5.01467 5.74248,-7.4785 2.19922,-7.4414 -4.27832,0.0448 -28.92621,3.88767 -34.33398,5.35351 -31.85022,8.63337 -61.38404,22.10737 -87.34961,39.66211 z m 0,0 c -15.92096,10.7638 -30.5053,23.05584 -43.44532,36.72461 -14.54989,15.36934 -17.15734,18.81941 -15.83984,20.95117 1.06044,1.71583 5.96451,0.77109 11.96875,-2.30469 2.2,-1.12697 11.20002,-9.77211 20,-19.21289 8.79998,-9.44078 18.7,-18.77573 22,-20.74414 2.61128,-1.55759 9.525,-5.81923 15.78711,-9.6875 -2.07025,-1.13253 -8.56043,-4.68154 -10.4707,-5.72656 z" />
    <ellipse
       style="fill:#48ce4b;fill-opacity:1;stroke-width:1.13646"
       id="path5"
       ry="3.1732082"
       rx="3.2037199"
       cy="465.5376"
       cx="333.85815" />
  </g>
</svg>
