<?xml version="1.0" standalone="no"?>
<!DOCTYPE svg PUBLIC "-//W3C//DTD SVG 20010904//EN"
 "http://www.w3.org/TR/2001/REC-SVG-20010904/DTD/svg10.dtd">
<svg version="1.0" xmlns="http://www.w3.org/2000/svg"
 width="128.000000pt" height="128.000000pt" viewBox="0 0 128.000000 128.000000"
 preserveAspectRatio="xMidYMid meet">

<g transform="translate(0.000000,128.000000) scale(0.100000,-0.100000)"
fill="#000000" stroke="none">
<path d="M333 1265 c-58 -25 -89 -104 -62 -158 6 -12 111 -122 232 -244 l222
-223 -227 -227 c-198 -200 -227 -233 -234 -268 -15 -80 62 -155 144 -140 32 6
77 47 310 278 151 150 280 284 288 299 17 33 18 86 1 113 -24 40 -563 564
-590 574 -36 14 -45 13 -84 -4z"/>
</g>
</svg>
